<svg xmlns="http://www.w3.org/2000/svg" viewBox="0 0 500 500"><g id="freepik--Floor--inject-435"><path id="freepik--floor--inject-435" d="M77.66,245.91c-95.18,55-95.17,144,0,199s249.49,55,344.67,0,95.17-144,0-199S172.84,191,77.66,245.91Z" style="fill:#fafafa"></path></g><g id="freepik--female-sexual-organs--inject-435"><g id="freepik--Uterus--inject-435"><ellipse cx="396.18" cy="137.56" rx="32.89" ry="28.43" style="fill:#e0e0e0"></ellipse><path d="M396.18,166c18.17,0,32.9-12.72,32.9-28.42,0-11.92-8.5-22.12-20.53-26.35,15,8,16.48,35.82-4.16,43.61-19.72,7.45-38.94-4.88-41.1-17.26C363.29,153.26,378,166,396.18,166Z" style="opacity:0.05"></path><ellipse cx="111.1" cy="137.56" rx="32.89" ry="28.43" style="fill:#e0e0e0"></ellipse><path d="M111.1,166c-18.16,0-32.89-12.72-32.89-28.42,0-11.92,8.49-22.12,20.53-26.35-15,8-16.49,35.82,4.16,43.61,19.72,7.45,38.94-4.88,41.09-17.26C144,153.26,129.27,166,111.1,166Z" style="opacity:0.05"></path><path id="freepik--Shadow--inject-435" d="M243.18,311.12c-5.78-3.34-5.78-8.75,0-12.09s15.16-3.34,20.94,0,5.78,8.75,0,12.09S249,314.46,243.18,311.12Z" style="fill:#e0e0e0"></path><path d="M185.92,119.21c-2.3-11.17-6.41-15-11.89-21.54-10.36-12.28-24.09-21.77-29.79-26.58-17.91-15.13-36.9-24-51.14-19.22-19,6.41-20.17,26.73-12.23,37.45,4.8,6.47,11.35,10.24,19.1,12.25,4.11,1.06,8.3,1.72,12.46,2.54,3.81.75,8.26,1.23,11.29,3.8.64.55,1.34,1.26,1.19,2.08a1.85,1.85,0,0,1-1.37,1.26c-1.63.47-3.36-.07-5-.23-2.11-.21-4.23-.37-6.35-.41a41.6,41.6,0,0,0-12,1.29,4.43,4.43,0,0,0-1.85.86c-1.35,1.19-1,3.35-.43,5.06a40.53,40.53,0,0,0,11.67,17.51c.62.55,1.29,1.48.73,2.07a1.35,1.35,0,0,1-.66.34c-3.9,1.07-8-.55-11.53-2.55a51.12,51.12,0,0,1-10.41-7.86,4,4,0,0,0-2-1.32,2.61,2.61,0,0,0-2.42,1.08,7.07,7.07,0,0,0-1.09,2.55A38.27,38.27,0,0,0,82,148a4.56,4.56,0,0,1,.19,2,1.47,1.47,0,0,1-1.37,1.25,2,2,0,0,1-1.2-.7c-3-3-4.16-7.25-5.23-11.31-.43-1.63-.84-3.26-1.25-4.9-2.09-8.48-4-17-7.17-25.11-2.29-5.79-4.83-11.58-5.88-17.77-2.2-13.14.43-26.6,9.28-36.86,16.24-18.8,45.2-16.35,65.63.77,9.88,8.28,18.79,14.6,27.08,18.72a29.81,29.81,0,0,0,32.84-4h-.06a52,52,0,0,1,5.71-4.32c.37-.25.75-.51,1.14-.74.77-.5,1.56-1,2.37-1.45,13.62-7.86,27-13.83,49.3-13.83s36.1,5.89,49.86,13.83a58.77,58.77,0,0,1,9.22,6.52,29.82,29.82,0,0,0,32.84,4c8.3-4.12,17.2-10.44,27.09-18.72,20.42-17.12,49.39-19.57,65.63-.77,8.85,10.26,11.48,23.72,9.27,36.86-1,6.19-3.59,12-5.87,17.77-3.19,8.08-5.08,16.63-7.17,25.11-.41,1.64-.82,3.27-1.25,4.9-1.08,4.06-2.26,8.33-5.23,11.31a2,2,0,0,1-1.21.7,1.47,1.47,0,0,1-1.37-1.25,4.72,4.72,0,0,1,.2-2,38.27,38.27,0,0,0-.2-18.33,6.88,6.88,0,0,0-1.08-2.55,2.62,2.62,0,0,0-2.42-1.08,4.08,4.08,0,0,0-2,1.32,51.06,51.06,0,0,1-10.4,7.86c-3.51,2-7.63,3.62-11.53,2.55a1.35,1.35,0,0,1-.66-.34c-.57-.59.11-1.52.73-2.07a40.53,40.53,0,0,0,11.67-17.51c.57-1.71.92-3.87-.43-5.06a4.47,4.47,0,0,0-1.86-.86,41.5,41.5,0,0,0-12-1.29c-2.12,0-4.24.2-6.36.41-1.65.16-3.38.7-5,.23a1.83,1.83,0,0,1-1.37-1.26c-.16-.82.55-1.53,1.19-2.08,3-2.57,7.48-3,11.29-3.8,4.16-.82,8.35-1.48,12.45-2.54,7.75-2,14.31-5.78,19.11-12.25,7.93-10.72,6.8-31-12.24-37.45C400,47.08,381,56,363.1,71.09c-5.69,4.81-19.43,14.3-29.78,26.58-5.48,6.49-9.6,10.37-11.9,21.54V119c-4.27,25-14.8,52.77-34.78,67.57a8.35,8.35,0,0,0-2.56,2.89c-3.77,7.4,9,12.26,4.34,32.41-2.71,11.64-8.07,22.87-12.56,33.55-4.07,9.66-7.4,14.28-7.4,27.52v22.1c0,2.19-1.45,4.38-4.34,6.05a20.13,20.13,0,0,1-8.12,2.4c7-1.54,7.05-6.7,7.05-6.7V301.6A23.87,23.87,0,0,0,248,300.31a10,10,0,0,0-1,.26,7.4,7.4,0,0,0-.91.29,15.35,15.35,0,0,0-1.82.73v5.23s0,5.16,7,6.7a20.08,20.08,0,0,1-8.11-2.4,8.43,8.43,0,0,1-4.1-4.51,2.69,2.69,0,0,1-.26-1.14c0-4.51,0-13.88,0-22.5,0-13.24-3.35-17.86-7.41-27.52-4.48-10.68-9.86-21.91-12.57-33.55-4.7-20.16,8.12-25,4.34-32.42a8.32,8.32,0,0,0-2.56-2.88c-19.93-14.78-30.46-42.42-34.74-67.43v0Z" style="fill:#ebebeb"></path><path d="M251.3,313.52a20.08,20.08,0,0,1-8.11-2.4,8.4,8.4,0,0,1-4.09-4.49v0a2.69,2.69,0,0,1-.26-1.14c0-4.51,0-13.88,0-22.5,0-13.24-3.35-17.86-7.41-27.52-4.48-10.68-9.86-21.91-12.57-33.55-4.7-20.16,8.12-25,4.34-32.42a8.32,8.32,0,0,0-2.56-2.88c-19.93-14.78-30.46-42.42-34.74-67.43v0c-2.3-11.17-6.42-15-11.9-21.54-.5-.6-1-1.19-1.52-1.77-.33-.37-.66-.74-1-1.1s-.9-1-1.38-1.48-1-1-1.51-1.57c-.23-.24-.46-.46-.69-.69l-1.06-1c-.35-.35-.7-.69-1.06-1-4.56-4.34-9.2-8.13-13.18-11.28l-.65-.51-.39-.31L150,75.64c5,3.29,14.53,7.64,27.82,5.63,10.1-1.53,15.27-7.72,21.67-14.78.36-.25.73-.51,1.1-.75s.75-.51,1.14-.74c.77-.5,1.56-1,2.37-1.45,13.62-7.86,27-13.83,49.3-13.83-30.75,0-59.41,28.79-52,76.26s45.17,54,45.35,61.4c.16,6.11-9.66,10.35-10.9,17.6s4.21,15,10.94,16L248,300.3h0c-.34.08-.66.16-1,.26s-.61.18-.91.29a15.35,15.35,0,0,0-1.82.73v5.23S244.26,312,251.3,313.52Z" style="fill:#e0e0e0"></path><path d="M274.92,184.76c9.35-5.39,24.25-12.71,36.3-31-5.78,13.07-13.81,24.82-24.58,32.82a8.29,8.29,0,0,0-2.57,2.89c-3.77,7.4,9,12.26,4.34,32.42a115.73,115.73,0,0,1-5.27,16.25c3.45-10.74,5-22.87.12-33.74C277.33,191.26,265.58,190.16,274.92,184.76Z" style="fill:#e0e0e0"></path><path d="M363.1,71.09a124,124,0,0,1,15.55-11.3c-10.16,5.76-34.18,19.41-42.26,24.08-10.34,6-13.75,18-15.51,36.82l.22.11c.1-.59.21-1.18.31-1.77v.18c2.31-11.17,6.42-15,11.89-21.54C343.67,85.38,357.41,75.9,363.1,71.09Z" style="fill:#e0e0e0"></path><path d="M252.81,53c12.22-1.32,31.19,1.12,47,12.19S322.6,79.88,329.5,79.88c-6.47,1-16.64-2.7-26.73-9.95S280.48,53.47,252.81,53Z" style="fill:#fff;opacity:0.6000000000000001"></path><path d="M253.66,186.81a62.28,62.28,0,0,1,.72,6.62c.14,2.21.2,4.42.2,6.63s-.06,4.41-.2,6.62a59.26,59.26,0,0,1-.72,6.62,61.74,61.74,0,0,1-.73-6.62q-.19-3.31-.19-6.62c0-2.21.06-4.42.2-6.63A59.78,59.78,0,0,1,253.66,186.81Z" style="fill:#fff;opacity:0.6000000000000001"></path><path d="M281.37,226.74c-3.27,9.43-10.8,28-15,39.38S263,287.06,263,296.81c0,.9,0,2.78,0,4.79a23.76,23.76,0,0,0-18.8,0c0-2,0-3.88,0-4.78,0-9.75.85-19.36-3.33-30.69s-11.72-30-15-39.38-3.49-23.06,5.32-13.65c5.05,5.41,11,7.9,15.53,7.9,3.36,0,6-1.36,6.87-3.92.91,2.56,3.51,3.92,6.87,3.92,4.55,0,10.49-2.49,15.54-7.9C284.86,203.68,284.64,217.3,281.37,226.74Z" style="fill:#e0e0e0"></path><path d="M281.37,226.74c-3.27,9.43-10.8,28-15,39.38S263,287.06,263,296.81c0,.9,0,2.78,0,4.79a23.76,23.76,0,0,0-18.8,0c0-2,0-3.88,0-4.78,0-9.75.85-19.36-3.33-30.69s-11.72-30-15-39.38-3.49-23.06,5.32-13.65c5.05,5.41,11,7.9,15.53,7.9,3.36,0,6-1.36,6.87-3.92.91,2.56,3.51,3.92,6.87,3.92,4.55,0,10.49-2.49,15.54-7.9C284.86,203.68,284.64,217.3,281.37,226.74Z" style="fill:#fafafa"></path><g style="opacity:0.2"><path d="M245,276.17a36.07,36.07,0,0,1,9.2-1.08,32.51,32.51,0,0,1,8.6,1.25l.93.29c.09-.61.2-1.23.31-1.85a32.36,32.36,0,0,0-11-1.5,38.39,38.39,0,0,0-9.71,1.56h0c.11.58.21,1.16.29,1.73C244.05,276.42,244.5,276.28,245,276.17Z" style="fill:#e0e0e0"></path><path d="M253.3,244a58.54,58.54,0,0,0-14,2.18c-1.71.55-3.57,1.25-5.28,2l.67,1.74a57,57,0,0,1,7.14-2.52,49.72,49.72,0,0,1,12.62-1.47,44.41,44.41,0,0,1,11.8,1.71,52.06,52.06,0,0,1,5.71,2l.64.27c.21-.54.42-1.08.64-1.63A41.34,41.34,0,0,0,253.3,244Z" style="fill:#e0e0e0"></path><path d="M245.75,283.37a33,33,0,0,1,8.34-1,29,29,0,0,1,7.81,1.13c.39.11.77.24,1.15.36,0-.63.05-1.26.09-1.9A30.08,30.08,0,0,0,253,280.61a33.32,33.32,0,0,0-8.64,1.39l-.17.06c0,.59.07,1.17.09,1.76Q245,283.56,245.75,283.37Z" style="fill:#e0e0e0"></path><path d="M244.18,269a39.72,39.72,0,0,1,10.06-1.18,36.09,36.09,0,0,1,9.41,1.36l1.57.5c.17-.59.35-1.18.55-1.78A34.71,34.71,0,0,0,253.1,266a43.3,43.3,0,0,0-10.78,1.71l-.77.26c.19.56.36,1.12.52,1.68C242.76,269.37,243.47,269.15,244.18,269Z" style="fill:#e0e0e0"></path><path d="M254.39,253.19a41.72,41.72,0,0,1,11,1.59c1.58.45,3.15,1,4.69,1.61.21-.55.43-1.11.64-1.68a38.81,38.81,0,0,0-17.48-3.39,52.82,52.82,0,0,0-12.93,2c-1.2.38-2.49.85-3.74,1.35.22.58.45,1.15.66,1.72a43.91,43.91,0,0,1,5.39-1.85A46.66,46.66,0,0,1,254.39,253.19Z" style="fill:#e0e0e0"></path><path d="M263,297a25.07,25.07,0,0,0-10.21-1.78,24.15,24.15,0,0,0-6.48,1.08c-.66.21-1.38.45-2.09.74v1.75a24.94,24.94,0,0,1,3.05-1.05A26.5,26.5,0,0,1,254,297a23.37,23.37,0,0,1,6.21.9,29.72,29.72,0,0,1,2.88,1Z" style="fill:#e0e0e0"></path><path d="M243.4,261.76a43.19,43.19,0,0,1,10.92-1.27,38.75,38.75,0,0,1,10.2,1.48c1,.29,2,.63,3,1l.65-1.72a36.62,36.62,0,0,0-15-2.6,48,48,0,0,0-11.85,1.87c-.72.22-1.47.49-2.22.77l.64,1.67A35.52,35.52,0,0,1,243.4,261.76Z" style="fill:#e0e0e0"></path><path d="M246.53,290.57a29.51,29.51,0,0,1,7.49-.87,26.39,26.39,0,0,1,7,1c.66.19,1.31.41,2,.64,0-.63,0-1.26,0-1.89a27.4,27.4,0,0,0-10.07-1.53,28.53,28.53,0,0,0-7.56,1.24l-1,.33c0,.6,0,1.19,0,1.78A21.24,21.24,0,0,1,246.53,290.57Z" style="fill:#e0e0e0"></path><path d="M271.36,217.16a25.94,25.94,0,0,1-2.41,1.47l.8.22a67.07,67.07,0,0,1,7.26,2.53c1.7.7,3.51,1.49,5.31,2.14q.17-.61.3-1.23A58,58,0,0,0,271.36,217.16Z" style="fill:#e0e0e0"></path><path d="M238.38,218.65q-1.14-.61-2.28-1.38l-.82.24c-3.67,1.17-7.94,3-10.73,4.1.12.63.27,1.26.42,1.88C229.47,222,233.74,219.86,238.38,218.65Z" style="fill:#e0e0e0"></path><path d="M283.44,215a68,68,0,0,0-6.14-3.1c-.4.36-.81.75-1.24,1.22-.09.1-.18.18-.27.27.83.31,1.66.63,2.48,1,1.65.69,3.4,1.45,5.16,2.11C283.45,215.93,283.46,215.44,283.44,215Z" style="fill:#e0e0e0"></path><path d="M253.44,229.35a68.35,68.35,0,0,0-16.15,2.49c-2.75.88-5.88,2.14-8.32,3.19.22.58.45,1.16.67,1.76,3.53-1.3,7-2.91,10.64-3.84a56.67,56.67,0,0,1,14.33-1.67,51.06,51.06,0,0,1,13.4,1.94,62.11,62.11,0,0,1,6.48,2.26c1,.42,2.09.89,3.17,1.32.18-.49.37-1,.54-1.44A46.26,46.26,0,0,0,253.44,229.35Z" style="fill:#e0e0e0"></path><path d="M253.37,236.67A63.45,63.45,0,0,0,238.3,239c-2.22.7-4.7,1.68-6.81,2.58.22.58.45,1.17.68,1.75a76.36,76.36,0,0,1,8.89-3.18,53.27,53.27,0,0,1,13.48-1.58,48,48,0,0,1,12.6,1.83,57,57,0,0,1,6.09,2.12l1.91.81.6-1.56A43.74,43.74,0,0,0,253.37,236.67Z" style="fill:#e0e0e0"></path><path d="M253.51,222a73.1,73.1,0,0,0-17.22,2.65c-3.29,1-7.1,2.61-9.76,3.74.2.57.42,1.16.64,1.78,4.12-1.44,8.05-3.37,12.33-4.45A60.19,60.19,0,0,1,254.68,224a53.68,53.68,0,0,1,14.2,2.06,62,62,0,0,1,6.87,2.39c1.41.58,2.89,1.23,4.37,1.79.17-.44.32-.88.47-1.3A49.05,49.05,0,0,0,253.51,222Z" style="fill:#e0e0e0"></path><path d="M231.25,213.09c-.45-.47-.86-.88-1.26-1.24-2.2.83-4.35,1.7-6.1,2.41a19.32,19.32,0,0,0,0,2.16c2.6-.9,5.14-2,7.72-3Z" style="fill:#e0e0e0"></path></g><path d="M244.25,301.59a22.27,22.27,0,0,1,9.3-1.93h0c-5.89,0-8.86-11.33-9.37-17.27.28,4.91.08,9.65.08,14.42C244.26,297.71,244.25,299.58,244.25,301.59Z" style="opacity:0.05"></path><path d="M263,301.59a22.19,22.19,0,0,0-9.29-1.93h0c5.89,0,8.86-11.33,9.37-17.27-.28,4.91-.08,9.65-.08,14.42Z" style="opacity:0.05"></path><path d="M276.06,213.09c-5.05,5.41-11,7.9-15.54,7.9-3.36,0-6-1.36-6.87-3.92-.91,2.56-3.51,3.92-6.87,3.92-4.55,0-10.48-2.49-15.53-7.9-8.81-9.41-8.59,4.21-5.32,13.65.8,2.29,1.85,5.14,3,8.29h0c-4.27-12.72-.35-14.34,11.23-11.54s13.55-2.93,13.55-2.93,2,5.74,13.54,2.93c10.69-2.58,14.85-1.39,12.07,8.81.77-2.07,1.45-4,2-5.56C284.64,217.3,284.86,203.68,276.06,213.09Z" style="opacity:0.05"></path><path d="M253.64,68.48c39.12,0,54.34,9.23,57.79,14.16,2.7,4,3.39,11.38,3,17.83-1.64,29.05-13.35,49.92-33.19,62.15C266,172,257.34,174.77,253.64,182.08c-3.7-7.31-12.34-10.07-27.56-19.46-19.85-12.23-31.56-33.1-33.2-62.15-.42-6.45.28-13.79,3-17.83C199.29,77.71,214.53,68.48,253.64,68.48Z" style="fill:#fafafa"></path><path d="M292.76,153.63c-.35-5.5-4.15-10.94-11.44-15.14-15.29-8.81-40.08-8.8-55.37,0-7.27,4.2-11.07,9.63-11.42,15.13a66.66,66.66,0,0,0,11.55,9c15.23,9.38,23.86,12.15,27.56,19.46,3.7-7.31,12.34-10.08,27.56-19.46A66.3,66.3,0,0,0,292.76,153.63Z" style="fill:#e6e6e6"></path><path d="M260.48,68.58c-2.19-.06-4.47-.1-6.84-.1-39.11,0-54.35,9.23-57.78,14.16-2.7,4-3.4,11.38-3,17.83,1.64,29.05,13.35,49.92,33.2,62.15,15.22,9.39,23.86,12.15,27.56,19.46-.74-25.82-24.13-28.54-25.91-57.44S231.59,75.12,260.48,68.58Z" style="opacity:0.05"></path><polygon points="253.64 182.09 253.64 182.09 253.64 182.09 253.64 182.09" style="fill:#fff;opacity:0.6000000000000001"></polygon></g></g><g id="freepik--plants-2--inject-435"><g id="freepik--Plants--inject-435"><path d="M68.75,412.11s8.85-31.35.87-63.82c-4.46-18.15-15-27.46-22-29-7.78-1.7-16.54,4.9-10.79,17.16,5.46,11.66,17.8,17.47,22.25,46.83,2.94,19.36.84,31.73.84,31.73Z" style="fill:#FF81AE"></path><path d="M68.75,412.11s8.85-31.35.87-63.82c-4.46-18.15-15-27.46-22-29-7.78-1.7-16.54,4.9-10.79,17.16,5.46,11.66,17.8,17.47,22.25,46.83,2.94,19.36.84,31.73.84,31.73Z" style="fill:#fff;opacity:0.5"></path><path d="M64.74,403.5a.49.49,0,0,1-.39-.58c7.14-34.57-6.56-65.58-18.56-76.55a.49.49,0,0,1,0-.7.48.48,0,0,1,.7,0c12.18,11.13,26.08,42.53,18.86,77.48A.48.48,0,0,1,64.74,403.5Z" style="fill:#fff"></path><path d="M59.94,415c-.3-8.16-3.87-16.88-12.47-26.64s-20.85-19.13-18.12-26.71,12.93-4.91,19.77.1,21.42,23.63,15.23,51.79Z" style="fill:#FF81AE"></path><path d="M59.94,415c-.3-8.16-3.87-16.88-12.47-26.64s-20.85-19.13-18.12-26.71,12.93-4.91,19.77.1,21.42,23.63,15.23,51.79Z" style="fill:#fff;opacity:0.65"></path><path d="M62.88,406.25a.5.5,0,0,1-.39-.5c.4-17.13-17-40.41-25.7-44.59a.49.49,0,0,1,.43-.89c9.13,4.38,26.67,27.7,26.25,45.5a.49.49,0,0,1-.5.49Z" style="fill:#fff"></path></g></g><g id="freepik--Shadows--inject-435"><ellipse id="freepik--shadow--inject-435" cx="122.77" cy="422.29" rx="75.73" ry="43.72" style="fill:#e0e0e0"></ellipse><path id="freepik--shadow--inject-435" d="M350.8,456.33a16.21,16.21,0,0,0,7.95-1.93l7.06-4.08c2.46-1.42,3.9-3.55,3.95-5.86s-1.34-4.57-3.82-6.08l-41.79-25.31-11-5-77.82-46.78c-1.86-1.07-4-3.93-5.67-6.23-.4-.54-.78-1.06-1.14-1.53a27.18,27.18,0,0,0-8.09-6.77,47.05,47.05,0,0,0-22.91-6c-5.58,0-10.44,1.1-14,3.18-4,2.32-6.23,5.75-6.23,9.65,0,5.29,4.06,10.68,11.12,14.76a45.66,45.66,0,0,0,13.83,5.09,40.63,40.63,0,0,1,10.4,3.5l78.22,47,7.61,6.95,45.13,23.81a16,16,0,0,0,7.29,1.64Z" style="fill:#e0e0e0"></path></g><g id="freepik--Pills--inject-435"><g id="freepik--Capsules--inject-435"><path d="M445.63,393.56V226.76c0-4.94-3.42-10.95-7.63-13.42l-77.86-45.63c-4.21-2.47-7.63-.46-7.63,4.48V339c0,4.95,3.42,11,7.64,13.43L438,398C442.21,400.51,445.63,398.51,445.63,393.56Z" style="fill:#f0f0f0"></path><path d="M437.82,400.54a6.27,6.27,0,0,1-3.07-1L356.89,354c-4-2.36-7.31-8.13-7.31-12.85V174.29c0-3,1.37-4.88,3.57-4.88a6.29,6.29,0,0,1,3.08,1L434.08,216a16.51,16.51,0,0,1,7.31,12.86V395.67a5.89,5.89,0,0,1-1,3.67,3.09,3.09,0,0,1-2.53,1.2Z" style="fill:#fff"></path><path d="M353.15,170.07a5.57,5.57,0,0,1,2.75.88l77.85,45.62c3.79,2.22,7,7.85,7,12.29V395.67c0,2.64-1.09,4.22-2.92,4.22a5.57,5.57,0,0,1-2.74-.88l-77.85-45.62c-3.79-2.22-7-7.85-7-12.29V174.29c0-2.64,1.09-4.22,2.91-4.22m0-1.31c-2.5,0-4.22,2-4.22,5.53V341.1c0,4.94,3.42,10.95,7.63,13.42l77.85,45.62a6.87,6.87,0,0,0,3.41,1.06c2.51,0,4.23-2,4.23-5.53V228.86c0-4.94-3.42-11-7.64-13.42l-77.85-45.62a6.81,6.81,0,0,0-3.41-1.06Z" style="fill:#e0e0e0"></path><path d="M434.41,215.44l-70.2-41.14h0c20.85,13.68,62.84,38.29,68,42.52s7.95,6.93,8,20.46,1.85,149.19,1.85,149.19V228.86C442.05,223.92,438.63,217.91,434.41,215.44Z" style="fill:#fafafa"></path><path d="M392.8,199.05a2.12,2.12,0,0,1,.92,1.69V367c0,.64-.41.91-.92.61a2.14,2.14,0,0,1-.92-1.69V199.66C391.88,199,392.29,198.75,392.8,199.05Z" style="fill:#e0e0e0"></path><path d="M384.74,337.77h0a10.31,10.31,0,0,0-.12-1.58c0-.12-.09-.51-.11-.59a17.07,17.07,0,0,0-7.41-10.7l-13.38-7.84-.11-.05a9.35,9.35,0,0,0-5.14-1.53,9.62,9.62,0,0,0-9.54,9.69,10.08,10.08,0,0,0,.13,1.57c0,.12.08.42.11.6a17.15,17.15,0,0,0,7.39,10.7l13.38,7.84s.08,0,.11.06a9.46,9.46,0,0,0,5.14,1.53,9.62,9.62,0,0,0,9.55-9.7Z" style="fill:#fafafa;mix-blend-mode:hard-light;opacity:0.7000000000000001"></path><path d="M356.09,321c0,4.64,3.42,10.4,7.63,12.87l13.39,7.84c4.21,2.47,7.63.72,7.63-3.92s-3.42-10.4-7.64-12.87l-13.38-7.84C359.51,314.59,356.09,316.35,356.09,321Z" style="fill:#e0e0e0"></path><path d="M358.07,315.5a9.62,9.62,0,0,0-9.14,9.67,10.08,10.08,0,0,0,.13,1.57c0,.12.08.42.11.6a17.66,17.66,0,0,0,5.89,9.65c-3.69-5.19-5.78-8.5-4.88-13.64A9.73,9.73,0,0,1,358.07,315.5Z" style="fill:#fff"></path><path d="M364.44,339.68c-1-.59-1.64-1.86-1.64-3.67a12.54,12.54,0,0,1,5.59-9.82,3.87,3.87,0,0,1,3.95-.4l7.18,4.22a8.1,8.1,0,0,1,2.9,11,7.84,7.84,0,0,1-10.81,2.94Z" style="fill:#f5f5f5"></path><path d="M354.53,333.87a8.1,8.1,0,0,1-2.89-11A7.86,7.86,0,0,1,362.45,320l9.89,5.84a3.87,3.87,0,0,0-3.95.4A12.54,12.54,0,0,0,362.8,336c0,1.81.63,3.08,1.64,3.67Z" style="fill:#FF81AE"></path><path d="M356.31,322.08a3.1,3.1,0,0,0,1.11,4.2l12,7.05a11.78,11.78,0,0,0,1.64-5.6c0-.19,0-.38,0-.55L360.45,321A3,3,0,0,0,356.31,322.08Z" style="fill:#fff;opacity:0.4"></path><path d="M364.44,339.68c-1-.59-1.64-1.86-1.64-3.67a12.54,12.54,0,0,1,5.59-9.82,3.87,3.87,0,0,1,3.95-.4l7.18,4.22a8.1,8.1,0,0,1,2.9,11,7.84,7.84,0,0,1-10.81,2.94Z" style="fill:#f5f5f5"></path><path d="M368.39,326.19A12.54,12.54,0,0,0,362.8,336c0,1.81.63,3.08,1.64,3.67l-.57-.33-.43-.25c-1-.59-1.63-1.86-1.63-3.67a12.58,12.58,0,0,1,5.59-9.83c1.54-.9,2.94-1,4-.39l1,.58A3.87,3.87,0,0,0,368.39,326.19Z" style="opacity:0.1"></path><path d="M383.43,336.12h0a8.1,8.1,0,0,1-1,4.86,7.84,7.84,0,0,1-10.81,2.94l-7.17-4.24c-1-.59-1.64-1.86-1.64-3.67a9.8,9.8,0,0,1,.35-2.46l12,7.05C379.09,342.91,383.38,338.75,383.43,336.12Z" style="fill:#e0e0e0"></path><path d="M380.69,336.42a3,3,0,0,1-4.13,1.13l-12.13-7.12a11.45,11.45,0,0,1,4-4.24c.16-.1.32-.18.48-.26l10.72,6.29A3.09,3.09,0,0,1,380.69,336.42Z" style="fill:#fff"></path><path d="M352.19,322.06l.29-.36.21-.25.25-.26.27-.26.15-.12a7.39,7.39,0,0,1,1.36-.95l0,0a5.2,5.2,0,0,1,.53-.26h0c-2.22,1.35-3.63,7.21.32,9.52,1.35.79,3.36,2,7.54,4.45a9.8,9.8,0,0,0-.35,2.46c0,1.81.63,3.08,1.64,3.67l-9.91-5.81a8.1,8.1,0,0,1-2.89-11c.12-.21.26-.42.4-.62Z" style="opacity:0.1"></path><path d="M434.87,366.89h0a10.22,10.22,0,0,0-.12-1.58c0-.12-.09-.51-.1-.59a17.14,17.14,0,0,0-7.41-10.7l-13.38-7.84-.12-.06a9.4,9.4,0,0,0-5.13-1.53,9.62,9.62,0,0,0-9.55,9.7,10.18,10.18,0,0,0,.13,1.57c0,.12.08.42.12.59a17.12,17.12,0,0,0,7.38,10.71L420.07,375l.12.05a9.32,9.32,0,0,0,5.13,1.53,9.62,9.62,0,0,0,9.55-9.69Z" style="fill:#fafafa;mix-blend-mode:hard-light;opacity:0.7000000000000001"></path><path d="M406.22,350.1c0,4.64,3.42,10.4,7.64,12.87l13.38,7.84c4.21,2.47,7.63.72,7.63-3.92s-3.42-10.4-7.63-12.87l-13.38-7.84C409.64,343.71,406.22,345.46,406.22,350.1Z" style="fill:#e0e0e0"></path><path d="M408.2,344.62a9.61,9.61,0,0,0-9.14,9.67,10.18,10.18,0,0,0,.13,1.57c0,.12.08.42.12.59a17.57,17.57,0,0,0,5.88,9.65c-3.68-5.19-5.78-8.49-4.88-13.63A9.71,9.71,0,0,1,408.2,344.62Z" style="fill:#fff"></path><path d="M414.57,368.8c-1-.59-1.64-1.86-1.64-3.67a12.58,12.58,0,0,1,5.59-9.83c1.54-.9,2.94-1,4-.4l7.18,4.23a8.1,8.1,0,0,1,2.9,11A7.85,7.85,0,0,1,421.74,373Z" style="fill:#f5f5f5"></path><path d="M404.67,363a8.09,8.09,0,0,1-2.9-11,7.85,7.85,0,0,1,10.81-2.94l9.89,5.83c-1-.59-2.41-.5-4,.4a12.58,12.58,0,0,0-5.59,9.83c0,1.81.63,3.08,1.64,3.67Z" style="fill:#FF81AE"></path><path d="M406.44,351.2a3.11,3.11,0,0,0,1.11,4.2l12,7a11.75,11.75,0,0,0,1.64-5.6c0-.19,0-.37,0-.55l-10.55-6.22A3,3,0,0,0,406.44,351.2Z" style="fill:#fff;opacity:0.4"></path><path d="M414.57,368.8c-1-.59-1.64-1.86-1.64-3.67a12.58,12.58,0,0,1,5.59-9.83c1.54-.9,2.94-1,4-.4l7.18,4.23a8.1,8.1,0,0,1,2.9,11A7.85,7.85,0,0,1,421.74,373Z" style="fill:#f5f5f5"></path><path d="M418.52,355.3a12.58,12.58,0,0,0-5.59,9.83c0,1.81.63,3.08,1.64,3.67l-.57-.33-.42-.25c-1-.59-1.64-1.87-1.64-3.67a12.58,12.58,0,0,1,5.59-9.83c1.54-.9,2.94-1,4-.4l1,.58C421.46,354.31,420.06,354.4,418.52,355.3Z" style="opacity:0.1"></path><path d="M433.56,365.23h0a8.12,8.12,0,0,1-1,4.87A7.85,7.85,0,0,1,421.74,373l-7.17-4.24c-1-.59-1.64-1.86-1.64-3.67a9.67,9.67,0,0,1,.35-2.46c4.19,2.45,9.32,5.48,12,7C429.22,372,433.51,367.86,433.56,365.23Z" style="fill:#e0e0e0"></path><path d="M430.83,365.54a3,3,0,0,1-4.14,1.13l-12.13-7.12a11.56,11.56,0,0,1,4-4.25c.16-.09.32-.18.48-.25l10.72,6.29A3.11,3.11,0,0,1,430.83,365.54Z" style="fill:#fff"></path><path d="M402.33,351.17c.09-.12.18-.24.28-.35l.21-.25.25-.26a3.45,3.45,0,0,1,.28-.26.86.86,0,0,1,.14-.13,7.85,7.85,0,0,1,1.36-.94l0,0,.53-.26h0c-2.22,1.36-3.63,7.21.32,9.52,1.35.8,3.37,2,7.54,4.46a9.67,9.67,0,0,0-.35,2.46c0,1.81.63,3.08,1.64,3.67l-9.9-5.82a8.09,8.09,0,0,1-2.9-11,6.57,6.57,0,0,1,.4-.62A1.77,1.77,0,0,1,402.33,351.17Z" style="opacity:0.1"></path><path d="M384.74,295.8h0a10.41,10.41,0,0,0-.12-1.58c0-.12-.09-.51-.1-.58a17.16,17.16,0,0,0-7.41-10.71l-13.39-7.84-.11-.05a9.43,9.43,0,0,0-5.13-1.53,9.61,9.61,0,0,0-9.55,9.69,10.31,10.31,0,0,0,.13,1.58l.11.59a17.12,17.12,0,0,0,7.39,10.7l13.38,7.84.11.06a9.46,9.46,0,0,0,5.14,1.53,9.62,9.62,0,0,0,9.55-9.69Z" style="fill:#fafafa;mix-blend-mode:hard-light;opacity:0.7000000000000001"></path><path d="M356.09,279c0,4.64,3.42,10.4,7.63,12.88l13.38,7.84c4.22,2.47,7.64.71,7.64-3.92s-3.42-10.4-7.64-12.87l-13.38-7.85C359.51,272.61,356.09,274.37,356.09,279Z" style="fill:#e0e0e0"></path><path d="M358.07,273.52a9.62,9.62,0,0,0-9.14,9.67,10.31,10.31,0,0,0,.13,1.58l.11.59a17.66,17.66,0,0,0,5.89,9.65c-3.69-5.19-5.78-8.5-4.88-13.63A9.74,9.74,0,0,1,358.07,273.52Z" style="fill:#fff"></path><path d="M364.44,297.7c-1-.59-1.64-1.86-1.64-3.67a12.57,12.57,0,0,1,5.59-9.82,3.87,3.87,0,0,1,3.95-.4l7.18,4.22a8.11,8.11,0,0,1,2.9,11A7.86,7.86,0,0,1,371.61,302Z" style="fill:#f5f5f5"></path><path d="M354.53,291.89a8.09,8.09,0,0,1-2.89-11A7.84,7.84,0,0,1,362.45,278l9.89,5.83a3.87,3.87,0,0,0-3.95.4A12.57,12.57,0,0,0,362.8,294c0,1.81.63,3.08,1.64,3.67Z" style="fill:#FF81AE"></path><path d="M356.31,280.1a3.1,3.1,0,0,0,1.11,4.2l12,7.05a11.78,11.78,0,0,0,1.64-5.6,4.93,4.93,0,0,0,0-.55L360.45,279A3,3,0,0,0,356.31,280.1Z" style="fill:#fff;opacity:0.4"></path><path d="M364.44,297.7c-1-.59-1.64-1.86-1.64-3.67a12.57,12.57,0,0,1,5.59-9.82,3.87,3.87,0,0,1,3.95-.4l7.18,4.22a8.11,8.11,0,0,1,2.9,11A7.86,7.86,0,0,1,371.61,302Z" style="fill:#f5f5f5"></path><path d="M368.39,284.21A12.57,12.57,0,0,0,362.8,294c0,1.81.63,3.08,1.64,3.67l-.57-.33-.43-.25c-1-.59-1.63-1.86-1.63-3.67a12.54,12.54,0,0,1,5.59-9.82,3.87,3.87,0,0,1,4-.4l1,.58A3.87,3.87,0,0,0,368.39,284.21Z" style="opacity:0.1"></path><path d="M383.43,294.14h0a8.15,8.15,0,0,1-1,4.87A7.86,7.86,0,0,1,371.61,302l-7.17-4.25c-1-.59-1.64-1.86-1.64-3.67a9.66,9.66,0,0,1,.35-2.45l12,7C379.09,300.93,383.38,296.77,383.43,294.14Z" style="fill:#e0e0e0"></path><path d="M380.7,294.45a3,3,0,0,1-4.14,1.12l-12.13-7.12a11.45,11.45,0,0,1,4-4.24c.16-.1.32-.18.48-.26l10.72,6.3A3.11,3.11,0,0,1,380.7,294.45Z" style="fill:#fff"></path><path d="M352.19,280.08l.29-.36.21-.25.25-.26.27-.26.15-.12a7.91,7.91,0,0,1,1.36-.95l0,0,.53-.26h0c-2.22,1.35-3.63,7.21.32,9.52,1.35.79,3.36,2,7.54,4.46a9.66,9.66,0,0,0-.35,2.45c0,1.81.63,3.08,1.64,3.67l-9.91-5.81a8.09,8.09,0,0,1-2.89-11,6.73,6.73,0,0,1,.4-.63Z" style="opacity:0.1"></path><path d="M434.87,324.91h0a10.31,10.31,0,0,0-.12-1.58c0-.12-.09-.51-.1-.59a17.14,17.14,0,0,0-7.41-10.7l-13.38-7.84-.12-.05a9.32,9.32,0,0,0-5.13-1.53,9.62,9.62,0,0,0-9.55,9.69,10.08,10.08,0,0,0,.13,1.57c0,.12.08.42.12.6a17.12,17.12,0,0,0,7.38,10.7L420.07,333l.12.06a9.4,9.4,0,0,0,5.13,1.53,9.62,9.62,0,0,0,9.55-9.7Z" style="fill:#fafafa;mix-blend-mode:hard-light;opacity:0.7000000000000001"></path><path d="M406.22,308.12c0,4.64,3.42,10.4,7.64,12.87l13.38,7.84c4.21,2.47,7.63.72,7.63-3.92s-3.42-10.4-7.63-12.87l-13.38-7.84C409.64,301.73,406.22,303.48,406.22,308.12Z" style="fill:#e0e0e0"></path><path d="M408.2,302.64a9.61,9.61,0,0,0-9.14,9.67,10.08,10.08,0,0,0,.13,1.57c0,.12.08.42.12.6a17.58,17.58,0,0,0,5.88,9.64c-3.68-5.18-5.77-8.49-4.88-13.63A9.73,9.73,0,0,1,408.2,302.64Z" style="fill:#fff"></path><path d="M414.57,326.82c-1-.59-1.64-1.86-1.64-3.67a12.58,12.58,0,0,1,5.59-9.83c1.54-.9,2.94-1,4-.39l7.18,4.22a8.09,8.09,0,0,1,2.9,11,7.84,7.84,0,0,1-10.81,2.94Z" style="fill:#f5f5f5"></path><path d="M404.67,321a8.1,8.1,0,0,1-2.9-11,7.86,7.86,0,0,1,10.81-2.94l9.89,5.84c-1-.6-2.41-.51-4,.39a12.58,12.58,0,0,0-5.59,9.83c0,1.81.63,3.08,1.64,3.67Z" style="fill:#FF81AE"></path><path d="M406.44,309.22a3.11,3.11,0,0,0,1.11,4.2l12,7.05a11.78,11.78,0,0,0,1.64-5.6c0-.19,0-.38,0-.56l-10.55-6.21A3,3,0,0,0,406.44,309.22Z" style="fill:#fff;opacity:0.4"></path><path d="M414.57,326.82c-1-.59-1.64-1.86-1.64-3.67a12.58,12.58,0,0,1,5.59-9.83c1.54-.9,2.94-1,4-.39l7.18,4.22a8.09,8.09,0,0,1,2.9,11,7.84,7.84,0,0,1-10.81,2.94Z" style="fill:#f5f5f5"></path><path d="M418.52,313.32a12.58,12.58,0,0,0-5.59,9.83c0,1.81.63,3.08,1.64,3.67l-.57-.33-.42-.25c-1-.59-1.64-1.86-1.64-3.67a12.58,12.58,0,0,1,5.59-9.83c1.54-.9,2.94-1,4-.39l1,.58C421.46,312.33,420.06,312.42,418.52,313.32Z" style="opacity:0.1"></path><path d="M433.56,323.26h0a8.1,8.1,0,0,1-1,4.86,7.84,7.84,0,0,1-10.81,2.94l-7.17-4.24c-1-.59-1.64-1.86-1.64-3.67a9.8,9.8,0,0,1,.35-2.46l12,7.05C429.22,330.05,433.51,325.89,433.56,323.26Z" style="fill:#e0e0e0"></path><path d="M430.83,323.56a3,3,0,0,1-4.14,1.13l-12.13-7.12a11.64,11.64,0,0,1,4-4.25l.48-.25,10.72,6.29A3.11,3.11,0,0,1,430.83,323.56Z" style="fill:#fff"></path><path d="M402.32,309.2c.1-.13.19-.25.29-.36l.21-.25.25-.26a3.45,3.45,0,0,1,.28-.26,1.79,1.79,0,0,1,.14-.13,7.85,7.85,0,0,1,1.36-.94l0,0a5.28,5.28,0,0,1,.53-.27h0c-2.22,1.36-3.63,7.21.32,9.53,1.35.79,3.37,2,7.54,4.45a9.8,9.8,0,0,0-.35,2.46c0,1.81.63,3.08,1.64,3.67l-9.9-5.81a8.1,8.1,0,0,1-2.9-11c.12-.21.26-.42.4-.62Z" style="opacity:0.1"></path><path d="M384.74,253.82h0a10.22,10.22,0,0,0-.12-1.58c0-.12-.09-.52-.11-.59a17.09,17.09,0,0,0-7.4-10.7l-13.39-7.84-.11-.06a9.44,9.44,0,0,0-5.14-1.53,9.61,9.61,0,0,0-9.54,9.69,10.31,10.31,0,0,0,.13,1.58c0,.12.08.42.11.59a17.12,17.12,0,0,0,7.39,10.7l13.38,7.85.11.05a9.46,9.46,0,0,0,5.14,1.53,9.62,9.62,0,0,0,9.55-9.69Z" style="fill:#fafafa;mix-blend-mode:hard-light;opacity:0.7000000000000001"></path><path d="M356.09,237c0,4.63,3.42,10.4,7.63,12.87l13.38,7.84c4.22,2.47,7.64.71,7.64-3.92s-3.42-10.4-7.63-12.87l-13.39-7.84C359.51,230.63,356.09,232.39,356.09,237Z" style="fill:#e0e0e0"></path><path d="M358.07,231.54a9.62,9.62,0,0,0-9.14,9.67,10.31,10.31,0,0,0,.13,1.58c0,.12.08.42.11.59a17.63,17.63,0,0,0,5.89,9.65c-3.69-5.19-5.78-8.49-4.88-13.63A9.74,9.74,0,0,1,358.07,231.54Z" style="fill:#fff"></path><path d="M364.44,255.73a4,4,0,0,1-1.64-3.68,12.57,12.57,0,0,1,5.59-9.82,3.87,3.87,0,0,1,3.95-.4l7.18,4.22a8.11,8.11,0,0,1,2.9,11A7.85,7.85,0,0,1,371.61,260Z" style="fill:#f5f5f5"></path><path d="M354.53,249.91a8.09,8.09,0,0,1-2.89-11A7.85,7.85,0,0,1,362.45,236l9.89,5.83a3.87,3.87,0,0,0-3.95.4,12.57,12.57,0,0,0-5.59,9.82,4,4,0,0,0,1.64,3.68Z" style="fill:#FF81AE"></path><path d="M356.31,238.13a3.1,3.1,0,0,0,1.11,4.2l12,7a11.78,11.78,0,0,0,1.64-5.6,4.93,4.93,0,0,0,0-.55L360.45,237A3,3,0,0,0,356.31,238.13Z" style="fill:#fff;opacity:0.4"></path><path d="M364.44,255.73a4,4,0,0,1-1.64-3.68,12.57,12.57,0,0,1,5.59-9.82,3.87,3.87,0,0,1,3.95-.4l7.18,4.22a8.11,8.11,0,0,1,2.9,11A7.85,7.85,0,0,1,371.61,260Z" style="fill:#f5f5f5"></path><path d="M368.39,242.23a12.57,12.57,0,0,0-5.59,9.82,4,4,0,0,0,1.64,3.68l-.57-.33-.43-.26c-1-.59-1.63-1.86-1.63-3.67a12.56,12.56,0,0,1,5.59-9.82,3.87,3.87,0,0,1,4-.4l1,.58A3.87,3.87,0,0,0,368.39,242.23Z" style="opacity:0.1"></path><path d="M383.43,252.16h0a8.13,8.13,0,0,1-1,4.87A7.85,7.85,0,0,1,371.61,260l-7.17-4.24a4,4,0,0,1-1.64-3.68,9.66,9.66,0,0,1,.35-2.45c4.19,2.45,9.31,5.47,12,7C379.09,259,383.38,254.79,383.43,252.16Z" style="fill:#e0e0e0"></path><path d="M380.7,252.47a3,3,0,0,1-4.14,1.12l-12.13-7.12a11.52,11.52,0,0,1,4-4.24c.16-.1.32-.18.48-.26l10.72,6.3A3.11,3.11,0,0,1,380.7,252.47Z" style="fill:#fff"></path><path d="M352.19,238.1l.29-.36.21-.24.25-.26.27-.27.15-.12a7.91,7.91,0,0,1,1.36-.95l0,0,.53-.26h0c-2.22,1.36-3.63,7.21.32,9.52,1.35.79,3.36,2,7.54,4.46a9.66,9.66,0,0,0-.35,2.45,4,4,0,0,0,1.64,3.68l-9.91-5.82a8.09,8.09,0,0,1-2.89-11,6.73,6.73,0,0,1,.4-.63Z" style="opacity:0.1"></path><path d="M434.87,282.93h0a10.41,10.41,0,0,0-.12-1.58c0-.12-.09-.51-.1-.58a17.14,17.14,0,0,0-7.41-10.71l-13.38-7.84-.12-.05a9.32,9.32,0,0,0-5.13-1.53,9.62,9.62,0,0,0-9.55,9.69,10.08,10.08,0,0,0,.13,1.57c0,.12.08.43.11.6a17.15,17.15,0,0,0,7.39,10.7L420.07,291l.12.06a9.4,9.4,0,0,0,5.13,1.53,9.62,9.62,0,0,0,9.55-9.69Z" style="fill:#fafafa;mix-blend-mode:hard-light;opacity:0.7000000000000001"></path><path d="M406.22,266.14c0,4.64,3.42,10.4,7.64,12.87l13.38,7.84c4.21,2.48,7.63.72,7.63-3.92s-3.42-10.39-7.63-12.87l-13.38-7.84C409.64,259.75,406.22,261.51,406.22,266.14Z" style="fill:#e0e0e0"></path><path d="M408.2,260.66a9.62,9.62,0,0,0-9.14,9.67,10.08,10.08,0,0,0,.13,1.57c0,.12.08.43.11.6a17.72,17.72,0,0,0,5.89,9.65c-3.68-5.19-5.77-8.5-4.88-13.63A9.73,9.73,0,0,1,408.2,260.66Z" style="fill:#fff"></path><path d="M414.57,284.84c-1-.59-1.64-1.86-1.64-3.67a12.54,12.54,0,0,1,5.59-9.82,3.87,3.87,0,0,1,4-.4l7.18,4.22a8.1,8.1,0,0,1,2.9,11,7.86,7.86,0,0,1-10.81,2.94Z" style="fill:#f5f5f5"></path><path d="M404.67,279a8.1,8.1,0,0,1-2.9-11,7.85,7.85,0,0,1,10.81-2.93l9.89,5.83a3.87,3.87,0,0,0-4,.4,12.54,12.54,0,0,0-5.59,9.82c0,1.81.63,3.08,1.64,3.67Z" style="fill:#FF81AE"></path><path d="M406.44,267.24a3.11,3.11,0,0,0,1.11,4.2l12,7.05a11.78,11.78,0,0,0,1.64-5.6c0-.19,0-.38,0-.55l-10.55-6.22A3,3,0,0,0,406.44,267.24Z" style="fill:#fff;opacity:0.4"></path><path d="M414.57,284.84c-1-.59-1.64-1.86-1.64-3.67a12.54,12.54,0,0,1,5.59-9.82,3.87,3.87,0,0,1,4-.4l7.18,4.22a8.1,8.1,0,0,1,2.9,11,7.86,7.86,0,0,1-10.81,2.94Z" style="fill:#f5f5f5"></path><path d="M418.52,271.35a12.54,12.54,0,0,0-5.59,9.82c0,1.81.63,3.08,1.64,3.67l-.57-.33-.42-.25c-1-.59-1.64-1.86-1.64-3.67a12.58,12.58,0,0,1,5.59-9.83c1.54-.9,2.94-1,4-.39l1,.58A3.87,3.87,0,0,0,418.52,271.35Z" style="opacity:0.1"></path><path d="M433.56,281.28h0a8.15,8.15,0,0,1-1,4.87,7.86,7.86,0,0,1-10.81,2.94l-7.17-4.25c-1-.59-1.64-1.86-1.64-3.67a9.66,9.66,0,0,1,.35-2.45c4.19,2.45,9.32,5.47,12,7C429.22,288.07,433.51,283.91,433.56,281.28Z" style="fill:#e0e0e0"></path><path d="M430.83,281.59a3,3,0,0,1-4.14,1.12l-12.13-7.12a11.53,11.53,0,0,1,4-4.24c.16-.1.32-.18.48-.26l10.72,6.3A3.1,3.1,0,0,1,430.83,281.59Z" style="fill:#fff"></path><path d="M402.32,267.22l.29-.36.21-.25.25-.26a3.45,3.45,0,0,1,.28-.26l.14-.12a7.39,7.39,0,0,1,1.36-1l0,0a5.2,5.2,0,0,1,.53-.26h0c-2.22,1.35-3.63,7.21.32,9.52,1.35.79,3.37,2,7.54,4.46a9.66,9.66,0,0,0-.35,2.45c0,1.81.63,3.08,1.64,3.67l-9.9-5.81a8.1,8.1,0,0,1-2.9-11c.12-.21.26-.42.4-.62Z" style="opacity:0.1"></path><path d="M384.74,211.84h0a10.22,10.22,0,0,0-.12-1.58c0-.12-.09-.51-.11-.59a17.09,17.09,0,0,0-7.4-10.7l-13.39-7.84-.11-.06a9.43,9.43,0,0,0-5.13-1.53,9.64,9.64,0,0,0-9.56,9.7,11.6,11.6,0,0,0,.14,1.57c0,.12.08.42.11.59a17.17,17.17,0,0,0,7.39,10.71L369.94,220l.11.05a9.38,9.38,0,0,0,5.14,1.53,9.62,9.62,0,0,0,9.55-9.69Z" style="fill:#fafafa;mix-blend-mode:hard-light;opacity:0.7000000000000001"></path><path d="M356.09,195.05c0,4.63,3.42,10.4,7.63,12.87l13.39,7.84c4.21,2.47,7.63.72,7.63-3.92s-3.42-10.4-7.63-12.87l-13.39-7.84C359.51,188.66,356.09,190.41,356.09,195.05Z" style="fill:#e0e0e0"></path><path d="M358.07,189.56a9.63,9.63,0,0,0-9.15,9.68,11.6,11.6,0,0,0,.14,1.57c0,.12.08.42.11.59a17.59,17.59,0,0,0,5.89,9.65c-3.69-5.19-5.78-8.49-4.88-13.63A9.74,9.74,0,0,1,358.07,189.56Z" style="fill:#fff"></path><path d="M364.44,213.75a4,4,0,0,1-1.64-3.67,12.58,12.58,0,0,1,5.59-9.83c1.54-.9,2.94-1,3.95-.4l7.18,4.23a8.1,8.1,0,0,1,2.9,11A7.85,7.85,0,0,1,371.61,218Z" style="fill:#f5f5f5"></path><path d="M354.53,207.93a8.09,8.09,0,0,1-2.89-11A7.85,7.85,0,0,1,362.45,194l9.89,5.83c-1-.59-2.41-.5-3.95.4a12.58,12.58,0,0,0-5.59,9.83,4,4,0,0,0,1.64,3.67Z" style="fill:#FF81AE"></path><path d="M356.31,196.15a3.1,3.1,0,0,0,1.11,4.2l12,7a11.78,11.78,0,0,0,1.64-5.6,4.93,4.93,0,0,0,0-.55L360.45,195A3,3,0,0,0,356.31,196.15Z" style="fill:#fff;opacity:0.4"></path><path d="M364.44,213.75a4,4,0,0,1-1.64-3.67,12.58,12.58,0,0,1,5.59-9.83c1.54-.9,2.94-1,3.95-.4l7.18,4.23a8.1,8.1,0,0,1,2.9,11A7.85,7.85,0,0,1,371.61,218Z" style="fill:#f5f5f5"></path><path d="M368.39,200.25a12.58,12.58,0,0,0-5.59,9.83,4,4,0,0,0,1.64,3.67l-.57-.33-.43-.25c-1-.6-1.63-1.87-1.63-3.68a12.57,12.57,0,0,1,5.59-9.82c1.54-.9,2.94-1,4-.4l1,.58C371.33,199.26,369.93,199.35,368.39,200.25Z" style="opacity:0.1"></path><path d="M383.43,210.18h0a8.12,8.12,0,0,1-1,4.87A7.85,7.85,0,0,1,371.61,218l-7.17-4.24a4,4,0,0,1-1.64-3.67,9.67,9.67,0,0,1,.35-2.46c4.19,2.45,9.31,5.47,12,7C379.09,217,383.38,212.81,383.43,210.18Z" style="fill:#e0e0e0"></path><path d="M380.7,210.49a3,3,0,0,1-4.14,1.13l-12.13-7.12a11.48,11.48,0,0,1,4-4.25c.16-.09.32-.18.48-.25l10.72,6.29A3.11,3.11,0,0,1,380.7,210.49Z" style="fill:#fff"></path><path d="M352.19,196.12l.29-.36.21-.24.25-.26.27-.27.15-.12a7.85,7.85,0,0,1,1.36-.94l0,0,.53-.26h0c-2.22,1.36-3.63,7.21.32,9.52,1.35.79,3.36,2,7.54,4.46a9.67,9.67,0,0,0-.35,2.46,4,4,0,0,0,1.64,3.67l-9.91-5.82a8.09,8.09,0,0,1-2.89-11,6.73,6.73,0,0,1,.4-.63Z" style="opacity:0.1"></path><path d="M434.87,241h0a10.22,10.22,0,0,0-.12-1.58c0-.12-.09-.52-.1-.59a17.14,17.14,0,0,0-7.41-10.7l-13.38-7.85-.12-.05a9.4,9.4,0,0,0-5.13-1.53,9.62,9.62,0,0,0-9.55,9.69,10.31,10.31,0,0,0,.13,1.58c0,.12.08.42.12.59a17.07,17.07,0,0,0,7.38,10.7l13.38,7.85.12.05a9.4,9.4,0,0,0,5.13,1.53,9.62,9.62,0,0,0,9.55-9.69Z" style="fill:#fafafa;mix-blend-mode:hard-light;opacity:0.7000000000000001"></path><path d="M406.22,224.16c0,4.64,3.42,10.4,7.64,12.88l13.38,7.84c4.21,2.47,7.63.71,7.63-3.92s-3.42-10.4-7.63-12.87l-13.38-7.85C409.64,217.77,406.22,219.53,406.22,224.16Z" style="fill:#e0e0e0"></path><path d="M408.2,218.68a9.62,9.62,0,0,0-9.14,9.67,10.31,10.31,0,0,0,.13,1.58c0,.12.08.42.12.59a17.61,17.61,0,0,0,5.88,9.65c-3.68-5.19-5.78-8.5-4.88-13.63A9.74,9.74,0,0,1,408.2,218.68Z" style="fill:#fff"></path><path d="M414.57,242.87a4,4,0,0,1-1.64-3.68,12.57,12.57,0,0,1,5.59-9.82,3.87,3.87,0,0,1,4-.4l7.18,4.22a8.11,8.11,0,0,1,2.9,11,7.86,7.86,0,0,1-10.81,2.94Z" style="fill:#f5f5f5"></path><path d="M404.67,237.05a8.09,8.09,0,0,1-2.9-11,7.84,7.84,0,0,1,10.81-2.94l9.89,5.83a3.87,3.87,0,0,0-4,.4,12.57,12.57,0,0,0-5.59,9.82,4,4,0,0,0,1.64,3.68Z" style="fill:#FF81AE"></path><path d="M406.44,225.26a3.1,3.1,0,0,0,1.11,4.2l12,7a11.78,11.78,0,0,0,1.64-5.6c0-.19,0-.37,0-.55l-10.55-6.22A3,3,0,0,0,406.44,225.26Z" style="fill:#fff;opacity:0.4"></path><path d="M414.57,242.87a4,4,0,0,1-1.64-3.68,12.57,12.57,0,0,1,5.59-9.82,3.87,3.87,0,0,1,4-.4l7.18,4.22a8.11,8.11,0,0,1,2.9,11,7.86,7.86,0,0,1-10.81,2.94Z" style="fill:#f5f5f5"></path><path d="M418.52,229.37a12.57,12.57,0,0,0-5.59,9.82,4,4,0,0,0,1.64,3.68l-.57-.33-.42-.26c-1-.59-1.64-1.86-1.64-3.67a12.56,12.56,0,0,1,5.59-9.82,3.87,3.87,0,0,1,4-.4l1,.58A3.87,3.87,0,0,0,418.52,229.37Z" style="opacity:0.1"></path><path d="M433.56,239.3h0a8.15,8.15,0,0,1-1,4.87,7.86,7.86,0,0,1-10.81,2.94l-7.17-4.24a4,4,0,0,1-1.64-3.68,9.66,9.66,0,0,1,.35-2.45c4.19,2.45,9.32,5.47,12,7C429.22,246.09,433.51,241.93,433.56,239.3Z" style="fill:#e0e0e0"></path><path d="M430.83,239.61a3,3,0,0,1-4.14,1.12l-12.13-7.12a11.53,11.53,0,0,1,4-4.24c.16-.1.32-.18.48-.26l10.72,6.3A3.11,3.11,0,0,1,430.83,239.61Z" style="fill:#fff"></path><path d="M402.33,225.24l.28-.36.21-.24.25-.26.28-.27.14-.12a7.91,7.91,0,0,1,1.36-1l0,0,.53-.26h0c-2.22,1.35-3.63,7.21.32,9.52,1.35.79,3.37,2,7.54,4.46a9.66,9.66,0,0,0-.35,2.45,4,4,0,0,0,1.64,3.68l-9.9-5.82a8.09,8.09,0,0,1-2.9-11,6.73,6.73,0,0,1,.4-.63Z" style="opacity:0.1"></path></g></g><g id="freepik--plants-1--inject-435"><g id="freepik--plants--inject-435"><path d="M428.27,431.66l-9.12-5.27s-5.43-22.56-3.27-42.87c3.05-28.54,21.84-39.28,29-36.82s9.21,10.77-2.61,27.77C435.28,384.5,426.71,405.39,428.27,431.66Z" style="fill:#FF81AE"></path><g style="opacity:0.65"><path d="M428.27,431.66l-9.12-5.27s-5.43-22.56-3.27-42.87c3.05-28.54,21.84-39.28,29-36.82s9.21,10.77-2.61,27.77C435.28,384.5,426.71,405.39,428.27,431.66Z" style="fill:#fff"></path></g><path d="M424.49,420.58l.09,0a.62.62,0,0,0,.5-.73c-5-26.33,4.2-55.92,15.59-68.23a.62.62,0,0,0,0-.89.64.64,0,0,0-.89,0c-11.6,12.54-21,42.61-15.9,69.32A.64.64,0,0,0,424.49,420.58Z" style="fill:#fff"></path><path d="M451.24,444.92c1.36.69,5-2.41,6-3.17a12.58,12.58,0,0,0,4-5,11.9,11.9,0,0,0,.7-7.17,28.58,28.58,0,0,0-1.09-3.74c-.42-1.21-.83-2.41-1.24-3.62a9.23,9.23,0,0,1-.73-3.68c.2-2.52,2.34-4.4,4.29-6,2.15-1.79,4.38-4.12,4.21-7.14a10.74,10.74,0,0,0-3-6.2c-1.54-1.76-3.34-3.29-4.74-5.15a7.47,7.47,0,0,1-1.76-4.63,7.7,7.7,0,0,1,.87-3c1-2,2.29-3.9,2.92-6.05s.39-4.78-1.34-6.21c-1.41-1.17-3.44-1.24-5.26-1a12.08,12.08,0,0,0-4.76,1.95c-4.66,2.91-7.11,8.73-12.1,11a52.71,52.71,0,0,1-6.09,1.82c-2,.64-4.06,1.8-4.91,3.74-1.68,3.83,2,8.25.9,12.28-1,3.57-4.32,5.09-6.08,8.34a7.48,7.48,0,0,0-.66,4.64,21.67,21.67,0,0,0,2.33,7.66,67.57,67.57,0,0,0,4.6,7.09S451,444.81,451.24,444.92Z" style="fill:#FF81AE"></path><g style="opacity:0.30000000000000004"><path d="M451.24,444.92c1.36.69,5-2.41,6-3.17a12.58,12.58,0,0,0,4-5,11.9,11.9,0,0,0,.7-7.17,28.58,28.58,0,0,0-1.09-3.74c-.42-1.21-.83-2.41-1.24-3.62a9.23,9.23,0,0,1-.73-3.68c.2-2.52,2.34-4.4,4.29-6,2.15-1.79,4.38-4.12,4.21-7.14a10.74,10.74,0,0,0-3-6.2c-1.54-1.76-3.34-3.29-4.74-5.15a7.47,7.47,0,0,1-1.76-4.63,7.7,7.7,0,0,1,.87-3c1-2,2.29-3.9,2.92-6.05s.39-4.78-1.34-6.21c-1.41-1.17-3.44-1.24-5.26-1a12.08,12.08,0,0,0-4.76,1.95c-4.66,2.91-7.11,8.73-12.1,11a52.71,52.71,0,0,1-6.09,1.82c-2,.64-4.06,1.8-4.91,3.74-1.68,3.83,2,8.25.9,12.28-1,3.57-4.32,5.09-6.08,8.34a7.48,7.48,0,0,0-.66,4.64,21.67,21.67,0,0,0,2.33,7.66,67.57,67.57,0,0,0,4.6,7.09S451,444.81,451.24,444.92Z" style="fill:#fff"></path></g><path d="M438,438h0a.6.6,0,0,0,.55-.65c-2.19-23.68,7.67-50.44,15.42-58.46a.6.6,0,0,0,0-.85.59.59,0,0,0-.84,0c-7.91,8.18-18,35.39-15.76,59.4A.6.6,0,0,0,438,438Z" style="fill:#fff"></path><path d="M440.38,408.84l.18,0a79.59,79.59,0,0,1,17.08-3.64.61.61,0,0,0,.54-.66.59.59,0,0,0-.65-.54,81.63,81.63,0,0,0-17.38,3.72.6.6,0,0,0,.23,1.16Z" style="fill:#fff"></path></g></g><g id="freepik--Calendar--inject-435"><g id="freepik--calendar--inject-435"><g id="freepik--Window--inject-435"><path d="M380,407.12v-123a10.86,10.86,0,0,0-1.55-5.26L385,275a11.11,11.11,0,0,1,1.58,5.29v123a3.54,3.54,0,0,1-2,3.24c.62-.36-.12.08-.19.11l-6.2,3.64A3.55,3.55,0,0,0,380,407.12Z" style="fill:#FF81AE"></path><path d="M380,407.12v-123a10.86,10.86,0,0,0-1.55-5.26L385,275a11.11,11.11,0,0,1,1.58,5.29v123a3.54,3.54,0,0,1-2,3.24c.62-.36-.12.08-.19.11l-6.2,3.64A3.55,3.55,0,0,0,380,407.12Z" style="opacity:0.25"></path><path d="M376.38,410.19a3,3,0,0,1-1.39-.35l-8.49-5.08-110-64.2a11.13,11.13,0,0,1-4.95-8.7v-123c0-1.3.17-2.22,1-2.79a1.67,1.67,0,0,1,.39-.23,2.15,2.15,0,0,1,.94-.21,4.23,4.23,0,0,1,2,.65L374.47,275.4a11.16,11.16,0,0,1,4.95,8.7v123A3.06,3.06,0,0,1,376.38,410.19Z" style="fill:#fafafa"></path><path d="M253.86,206.18a3.56,3.56,0,0,1,1.77.58l118.56,69.1a10.72,10.72,0,0,1,4.68,8.24v123a2.51,2.51,0,0,1-2.49,2.52,2.39,2.39,0,0,1-1.11-.27l-8.48-5.07h0l-110-64.19a10.75,10.75,0,0,1-4.68-8.24v-123c0-1.15.13-1.9.79-2.34l0,0a1.5,1.5,0,0,1,.28-.16,1.63,1.63,0,0,1,.7-.15m0-1.08a2.7,2.7,0,0,0-1.17.25,2.53,2.53,0,0,0-.47.28,3.55,3.55,0,0,0-1.26,3.24v123a11.71,11.71,0,0,0,5.22,9.17l110,64.2h0l8.52,5.08a3.39,3.39,0,0,0,1.64.42,3.59,3.59,0,0,0,3.57-3.61v-123a11.77,11.77,0,0,0-5.22-9.17L256.18,205.82a4.66,4.66,0,0,0-2.32-.72Z" style="fill:#FF81AE"></path><path d="M256.19,205.82l118.55,69.11a10.78,10.78,0,0,1,3.67,3.92L385,275a10.51,10.51,0,0,0-3.63-3.86L262.84,202a3.63,3.63,0,0,0-3.79-.31c-.93.58-5.26,3.08-6.36,3.67A3.77,3.77,0,0,1,256.19,205.82Z" style="fill:#FF81AE"></path><path d="M256.19,205.82l118.55,69.11a10.78,10.78,0,0,1,3.67,3.92L385,275a10.51,10.51,0,0,0-3.63-3.86L262.84,202a3.63,3.63,0,0,0-3.79-.31c-.93.58-5.26,3.08-6.36,3.67A3.77,3.77,0,0,1,256.19,205.82Z" style="fill:#fff;opacity:0.2"></path></g><g id="freepik--calendar--inject-435"><path d="M259.45,250.7A4.24,4.24,0,0,0,261.4,254l9.59,5.63c1.08.63,1.95.19,1.95-1a4.24,4.24,0,0,0-1.95-3.28l-9.59-5.63C260.32,249.07,259.45,249.52,259.45,250.7Z" style="fill:#455a64"></path><path d="M275.64,260.19a4.24,4.24,0,0,0,1.95,3.28l9.59,5.63c1.08.63,1.95.18,1.95-1a4.29,4.29,0,0,0-1.94-3.29l-9.6-5.62C276.51,258.56,275.64,259,275.64,260.19Z" style="fill:#455a64"></path><path d="M291.83,269.68a4.24,4.24,0,0,0,1.95,3.28l9.6,5.63c1.07.63,1.95.18,1.95-1a4.27,4.27,0,0,0-1.95-3.29l-9.6-5.62C292.7,268,291.83,268.49,291.83,269.68Z" style="fill:#455a64"></path><path d="M308,279.16a4.24,4.24,0,0,0,2,3.29l9.6,5.63c1.07.63,1.95.18,1.95-1a4.27,4.27,0,0,0-1.95-3.29l-9.6-5.63C308.89,277.53,308,278,308,279.16Z" style="fill:#455a64"></path><path d="M324.21,288.65a4.24,4.24,0,0,0,2,3.28l9.6,5.63c1.07.63,1.95.19,1.95-1a4.27,4.27,0,0,0-1.95-3.28l-9.6-5.63C325.08,287,324.21,287.47,324.21,288.65Z" style="fill:#455a64"></path><path d="M340.4,298.14a4.24,4.24,0,0,0,2,3.28l9.6,5.63c1.07.63,1.95.18,1.95-1a4.27,4.27,0,0,0-1.95-3.29l-9.6-5.62C341.27,296.51,340.4,297,340.4,298.14Z" style="fill:#455a64"></path><path d="M356.59,307.62a4.24,4.24,0,0,0,2,3.29l9.6,5.63c1.08.63,1.95.18,1.95-1a4.24,4.24,0,0,0-1.95-3.29l-9.6-5.62C357.46,306,356.59,306.44,356.59,307.62Z" style="fill:#455a64"></path><path d="M266.1,266.83l1.77,1.05a10.83,10.83,0,0,1,5,8.32c0,3-2.23,4.11-5,2.54l-1.84-1.05a10.71,10.71,0,0,1-5-8.33C261.09,266.34,263.33,265.21,266.1,266.83Z" style="fill:#e0e0e0"></path><path d="M266.1,285.48l1.77,1a10.86,10.86,0,0,1,5,8.33c0,3-2.23,4.11-5,2.54l-1.84-1.05a10.73,10.73,0,0,1-5-8.33C261.09,285,263.33,283.86,266.1,285.48Z" style="fill:#e0e0e0"></path><path d="M266.1,322.78l1.77,1a10.83,10.83,0,0,1,5,8.33c0,3-2.23,4.11-5,2.53l-1.84-1.05a10.69,10.69,0,0,1-5-8.32C261.09,322.28,263.33,321.15,266.1,322.78Z" style="fill:#e0e0e0"></path><path d="M282.3,276.33l1.77,1a10.86,10.86,0,0,1,5,8.33c0,3-2.22,4.11-5,2.53l-1.83-1.05a10.68,10.68,0,0,1-5-8.32C277.29,275.84,279.53,274.7,282.3,276.33Z" style="fill:#e0e0e0"></path><path d="M282.3,295l1.77,1a10.83,10.83,0,0,1,5,8.33c0,3-2.22,4.11-5,2.53l-1.83-1.05a10.68,10.68,0,0,1-5-8.32C277.29,294.48,279.53,293.35,282.3,295Z" style="fill:#e0e0e0"></path><path d="M282.3,332.27l1.77,1a10.86,10.86,0,0,1,5,8.33c0,3-2.22,4.11-5,2.54l-1.83-1.05a10.71,10.71,0,0,1-5-8.33C277.29,331.78,279.53,330.65,282.3,332.27Z" style="fill:#e0e0e0"></path><path d="M298.5,285.82l1.77,1.05a10.82,10.82,0,0,1,5,8.33c0,3-2.23,4.1-5,2.53l-1.83-1.05a10.68,10.68,0,0,1-5-8.33C293.5,285.33,295.74,284.2,298.5,285.82Z" style="fill:#e0e0e0"></path><path d="M298.5,304.47l1.77,1a10.85,10.85,0,0,1,5,8.33c0,3-2.23,4.11-5,2.54l-1.83-1.05a10.7,10.7,0,0,1-5-8.33C293.5,304,295.74,302.85,298.5,304.47Z" style="fill:#e0e0e0"></path><path d="M298.5,341.77l1.77,1a10.82,10.82,0,0,1,5,8.33c0,3-2.23,4.11-5,2.53l-1.83-1.05a10.67,10.67,0,0,1-5-8.32C293.5,341.27,295.74,340.14,298.5,341.77Z" style="fill:#e0e0e0"></path><path d="M314.7,295.32l1.77,1a10.85,10.85,0,0,1,5,8.33c0,3-2.23,4.11-5,2.53l-1.84-1.05a10.69,10.69,0,0,1-5-8.32C309.7,294.83,311.94,293.69,314.7,295.32Z" style="fill:#e0e0e0"></path><path d="M314.7,314l1.77,1a10.82,10.82,0,0,1,5,8.33c0,3-2.23,4.11-5,2.53l-1.84-1.05a10.69,10.69,0,0,1-5-8.32C309.7,313.47,311.94,312.34,314.7,314Z" style="fill:#e0e0e0"></path><path d="M331.79,320.43S336,330.51,336,334.75c0,3.11-1.86,4.54-4.16,3.19s-4.15-4.95-4.15-8.06C327.64,325.64,331.79,320.43,331.79,320.43Z" style="fill:#FF81AE"></path><path d="M348,329.91s4.16,10.08,4.16,14.33c0,3.1-1.86,4.53-4.16,3.19s-4.15-5-4.15-8.06C343.85,335.12,348,329.91,348,329.91Z" style="fill:#FF81AE"></path><path d="M348,329.91s4.16,10.08,4.16,14.33c0,3.1-1.86,4.53-4.16,3.19s-4.15-5-4.15-8.06C343.85,335.12,348,329.91,348,329.91Z" style="fill:#fff;opacity:0.1"></path><path d="M364.21,339.39s4.16,10.08,4.16,14.33c0,3.11-1.86,4.53-4.16,3.19s-4.15-5-4.15-8.06C360.06,344.61,364.21,339.39,364.21,339.39Z" style="fill:#FF81AE"></path><path d="M364.21,339.39s4.16,10.08,4.16,14.33c0,3.11-1.86,4.53-4.16,3.19s-4.15-5-4.15-8.06C360.06,344.61,364.21,339.39,364.21,339.39Z" style="fill:#fff;opacity:0.2"></path><path d="M267,301.07s4.16,10.09,4.16,14.33c0,3.11-1.86,4.54-4.16,3.19s-4.15-4.95-4.15-8.06C262.82,306.29,267,301.07,267,301.07Z" style="fill:#FF81AE"></path><path d="M267,301.07s4.16,10.09,4.16,14.33c0,3.11-1.86,4.54-4.16,3.19s-4.15-4.95-4.15-8.06C262.82,306.29,267,301.07,267,301.07Z" style="fill:#fff;opacity:0.4"></path><path d="M283.18,310.56s4.16,10.08,4.16,14.33c0,3.1-1.86,4.53-4.16,3.18S279,323.12,279,320C279,315.77,283.18,310.56,283.18,310.56Z" style="fill:#FF81AE"></path><path d="M283.18,310.56s4.16,10.08,4.16,14.33c0,3.1-1.86,4.53-4.16,3.18S279,323.12,279,320C279,315.77,283.18,310.56,283.18,310.56Z" style="fill:#fff;opacity:0.6000000000000001"></path><path d="M299.39,320s4.16,10.08,4.16,14.33c0,3.11-1.86,4.53-4.16,3.19s-4.15-4.95-4.15-8.06C295.24,325.25,299.39,320,299.39,320Z" style="fill:#FF81AE"></path><path d="M299.39,320s4.16,10.08,4.16,14.33c0,3.11-1.86,4.53-4.16,3.19s-4.15-4.95-4.15-8.06C295.24,325.25,299.39,320,299.39,320Z" style="fill:#fff;opacity:0.8"></path><path d="M314.7,332.62l1.77,1a10.82,10.82,0,0,1,5,8.33c0,3-2.23,4.11-5,2.53l-1.84-1a10.71,10.71,0,0,1-5-8.33C309.7,332.12,311.94,331,314.7,332.62Z" style="fill:#e0e0e0"></path><path d="M314.7,351.26l1.77,1a10.85,10.85,0,0,1,5,8.33c0,3-2.23,4.11-5,2.54l-1.84-1.05a10.73,10.73,0,0,1-5-8.33C309.7,350.77,311.94,349.64,314.7,351.26Z" style="fill:#e0e0e0"></path><path d="M330.91,304.82l1.77,1a10.83,10.83,0,0,1,5,8.33c0,3-2.22,4.11-5,2.53l-1.83-1.05a10.69,10.69,0,0,1-5-8.33C325.9,304.32,328.14,303.19,330.91,304.82Z" style="fill:#e0e0e0"></path><path d="M330.91,342.11l1.77,1a10.86,10.86,0,0,1,5,8.33c0,3-2.22,4.11-5,2.54L330.88,353a10.68,10.68,0,0,1-5-8.32C325.9,341.62,328.14,340.48,330.91,342.11Z" style="fill:#e0e0e0"></path><path d="M330.91,360.76l1.77,1a10.85,10.85,0,0,1,5,8.33c0,3-2.22,4.11-5,2.53l-1.83-1.05a10.68,10.68,0,0,1-5-8.32C325.9,360.27,328.14,359.13,330.91,360.76Z" style="fill:#e0e0e0"></path><path d="M347.11,314.31l1.77,1a10.88,10.88,0,0,1,5,8.33c0,3-2.23,4.11-5,2.54l-1.83-1.06a10.67,10.67,0,0,1-5-8.32C342.11,313.82,344.35,312.68,347.11,314.31Z" style="fill:#e0e0e0"></path><path d="M347.11,351.61l1.77,1a10.84,10.84,0,0,1,5,8.33c0,3-2.23,4.11-5,2.53l-1.83-1.05a10.68,10.68,0,0,1-5-8.32C342.11,351.11,344.35,350,347.11,351.61Z" style="fill:#e0e0e0"></path><path d="M347.11,370.25l1.77,1a10.88,10.88,0,0,1,5,8.33c0,3-2.23,4.11-5,2.54l-1.83-1.05a10.68,10.68,0,0,1-5-8.33C342.11,369.76,344.35,368.63,347.11,370.25Z" style="fill:#e0e0e0"></path><path d="M363.31,323.81l1.77,1a10.82,10.82,0,0,1,5,8.33c0,3-2.23,4.11-5,2.53l-1.83-1a10.68,10.68,0,0,1-5-8.33C358.31,323.31,360.55,322.18,363.31,323.81Z" style="fill:#e0e0e0"></path><path d="M363.31,361.1l1.77,1a10.85,10.85,0,0,1,5,8.33c0,3-2.23,4.11-5,2.54L363.28,372a10.67,10.67,0,0,1-5-8.32C358.31,360.61,360.55,359.48,363.31,361.1Z" style="fill:#e0e0e0"></path><path d="M363.31,379.75l1.77,1a10.85,10.85,0,0,1,5,8.33c0,3-2.23,4.11-5,2.53l-1.83-1a10.67,10.67,0,0,1-5-8.32C358.31,379.26,360.55,378.12,363.31,379.75Z" style="fill:#e0e0e0"></path></g><polygon points="369.73 295.53 259.8 231.11 259.8 219.39 369.73 283.81 369.73 295.53" style="fill:#FF81AE"></polygon><path d="M369.73,304.86a.52.52,0,0,1-.27-.07L259.53,240.37a.56.56,0,0,1-.2-.75.56.56,0,0,1,.75-.19L370,303.85a.54.54,0,0,1-.28,1Z" style="fill:#e0e0e0"></path></g></g><g id="freepik--pregnancy-test--inject-435"><g id="freepik--pregnancy-test--inject-435"><path d="M184.76,337.88c8.12-4.69,23.48-3.42,34.31,2.84a24.93,24.93,0,0,1,7.31,6.09c2,2.64,4.75,6.8,7.64,8.47l77.91,42.56,11,5v11.33l-23,13.28-7.59-6.94-78.45-47.71a43.5,43.5,0,0,0-11.21-3.8,43.15,43.15,0,0,1-13-4.78c-6.41-3.71-9.79-8.33-9.79-12.46,0-1.92,0-4.59,0-6.55C179.87,342.37,181.47,339.78,184.76,337.88Z" style="fill:#e6e6e6"></path><path d="M292.71,408.62,214.19,365.7a43.32,43.32,0,0,0-11.4-3.87,42.38,42.38,0,0,1-12.8-4.71c-5.93-3.42-9.47-7.87-9.47-11.89,0-2.7,1.59-5,4.57-6.77s7.39-2.74,12.39-2.74a44.32,44.32,0,0,1,21.25,5.58,24.27,24.27,0,0,1,7.11,5.92c.35.45.72.95,1.11,1.47,1.88,2.55,4.22,5.72,6.73,7.17l77.93,42.57,9.83,4.47L300,415.27Z" style="fill:#f5f5f5"></path><path d="M197.48,335.05v1.35h0a43.71,43.71,0,0,1,20.92,5.48,23.6,23.6,0,0,1,6.91,5.75l1.1,1.46c1.92,2.6,4.31,5.83,7,7.37L311.28,399l.05,0,0,0L320,403l-19.88,11.48-6.87-6.28-.12-.11L293,408l-78.42-42.86a44,44,0,0,0-11.61-4,41.74,41.74,0,0,1-12.61-4.63c-5.71-3.31-9.12-7.53-9.12-11.31,0-2.45,1.46-4.59,4.23-6.18,3-1.74,7.17-2.65,12-2.65v-1.35m0,0c-4.91,0-9.42.92-12.72,2.83-8.12,4.69-5.93,13.57,4.89,19.82a43.16,43.16,0,0,0,13,4.79,43.13,43.13,0,0,1,11.21,3.8l78.45,42.88,7.59,6.93,23-13.28-11-5L234,355.28c-2.89-1.67-5.62-5.83-7.64-8.47a24.93,24.93,0,0,0-7.31-6.09,44.72,44.72,0,0,0-21.59-5.67Z" style="fill:#e0e0e0"></path><path d="M214.87,355.29c4.36-2.52,3.18-7.28-2.62-10.63s-14.05-4-18.4-1.52-3.18,7.27,2.62,10.62S210.51,357.8,214.87,355.29Z" style="fill:#ebebeb"></path><polygon points="292.32 409.17 292.32 420.49 299.91 427.43 299.91 416.1 292.32 409.17" style="opacity:0.1"></polygon><path d="M272.7,386.52a11.19,11.19,0,0,1-10.12-.19l-4.26-2.45c-2.88-1.67-3-4.29-.32-5.85a11.21,11.21,0,0,1,10.13.19l4.25,2.45C275.27,382.34,275.41,385,272.7,386.52Z" style="fill:#e0e0e0"></path><path d="M258,379.89a11.21,11.21,0,0,1,10.13.18l4.25,2.46a4.58,4.58,0,0,1,2.06,2.13,3.79,3.79,0,0,1-1.74,1.86,11.19,11.19,0,0,1-10.12-.19l-4.26-2.45a4.62,4.62,0,0,1-2.06-2.13A3.79,3.79,0,0,1,258,379.89Z" style="fill:#fafafa"></path><path d="M266.89,379.59a9.66,9.66,0,0,1,1.24.48l.06,0L260,384.84l-1.11-.63Z" style="fill:#FF81AE"></path><path d="M299.91,416.1l23-13.28,41.66,25.24c1.72,1.05,2.57,2.4,2.54,3.75s0,10,0,11.32-.9,2.63-2.62,3.63l-7.07,4.08a14.59,14.59,0,0,1-12.67.24l-44.84-23.65Z" style="fill:#FF81AE"></path><path d="M299.91,416.1l23-13.28,41.66,25.24c1.72,1.05,2.57,2.4,2.54,3.75s0,10,0,11.32-.9,2.63-2.62,3.63l-7.07,4.08a14.59,14.59,0,0,1-12.67.24l-44.84-23.65Z" style="opacity:0.1"></path><path d="M351.15,419.93V452.4a13.38,13.38,0,0,1-6.4-1.32l-44.84-23.65V416.1l23-13.28Z" style="opacity:0.1"></path><path d="M344.74,439.75a14.58,14.58,0,0,0,12.68-.24l7.07-4.08c1.72-1,2.59-2.3,2.62-3.62s-.82-2.7-2.54-3.75l-41.66-25.24-23,13.28Z" style="fill:#FF81AE"></path></g></g><g id="freepik--Character--inject-435"><g id="freepik--character--inject-435"><g id="freepik--Bottom--inject-435"><path d="M70.5,351.55l30.31-.26c-5.22,20.14-8.48,31.36-11,43.87.26,1.57-3.43,27.09-4.48,32.27s-13.14,5.55-14.1-3.31c-.63-5.89.51-27.14.46-30C71.53,384,70.7,369.64,70.5,351.55Z" style="fill:#ffa8a7"></path><path d="M159.6,337.73c-1.07,15-2.83,30.27-3.35,40-.32,6,.07,8.79,2.41,11.37,4.89,5.4,11.87,9.86,18.07,14.63-1,2.31-8.62,2-12.34.08a97.24,97.24,0,0,1-13.8-9.12c-5.09-3.89-13.41-4.52-13.31-10.19,0-.7-.95-3.52-.91-3.63,0-2.23-4.49-24.89-7.75-42.92Z" style="fill:#ffa8a7"></path><path d="M187.19,410.35c.32,0,.74,3.45-1.05,4.87-2.06,1.64-8,4.27-15.88,3.12s-12-3.59-15.11-6.19-7.41-6.28-10.94-7.11c-3.29-.77-7.6-2.53-8.63-3.54s-.79-5.37-.79-5.37Z" style="fill:#263238"></path><path d="M136.25,379.71a.7.7,0,0,0-.63.72c-.07,1.22.67,4.72.21,7-.55,2.79-1.64,7.37-.93,10.16.56,2.22,6.49,4.17,9.9,5.51a43.85,43.85,0,0,1,11,7c3.62,3,11.32,6.13,16.43,6.31,3.82.14,8-.1,11.5-1.81,1.43-.7,3.32-2,3.4-3.72a7.3,7.3,0,0,0-1.93-5,21.72,21.72,0,0,0-5.46-4,118.47,118.47,0,0,1-13.1-8.86c-2.64-2.09-5.29-4.53-6.17-7.78-.24-.87-.34-1.79-.64-2.65a3.34,3.34,0,0,0-1.66-2.06,4.38,4.38,0,0,0-1.8-.27c-3.5,0-7.15.39-10.12,2.25a3.87,3.87,0,0,0-1.53,1.5c-.78,1.58.29,3.76-.83,5.11-1.77-2-1.5-4.89-3.93-6.44-.72-.46-1.72-.68-2.85-1.28C136.52,381.14,136.39,380.34,136.25,379.71Z" style="fill:#37474f"></path><path d="M180.07,402.14c-11.32.5-15.28,8.37-15.85,12.53a27.32,27.32,0,0,0,8,1.8c7.81.28,13.23-1.64,14.85-4.31C188.94,409,185.68,404.77,180.07,402.14Z" style="fill:#fafafa"></path><path d="M164.65,402.27a.62.62,0,0,1-.34-.13.52.52,0,0,1-.07-.75,13.5,13.5,0,0,1,10.31-3.66.52.52,0,0,1,.47.59.53.53,0,0,1-.61.46,12.57,12.57,0,0,0-9.33,3.3A.56.56,0,0,1,164.65,402.27Z" style="fill:#f0f0f0"></path><path d="M159.82,399.13a.65.65,0,0,1-.35-.13.52.52,0,0,1-.06-.75,13.49,13.49,0,0,1,10.3-3.66.53.53,0,1,1-.14,1.05,12.52,12.52,0,0,0-9.32,3.3A.56.56,0,0,1,159.82,399.13Z" style="fill:#f0f0f0"></path><path d="M155.82,395.9a.53.53,0,0,1-.35-.13.52.52,0,0,1-.06-.75,13.57,13.57,0,0,1,10.3-3.66.54.54,0,0,1,.48.6.55.55,0,0,1-.62.46,12.56,12.56,0,0,0-9.32,3.29A.56.56,0,0,1,155.82,395.9Z" style="fill:#f0f0f0"></path><path d="M151.47,392.68a.54.54,0,0,1-.34-.12.52.52,0,0,1-.08-.75c2.22-2.59,7.15-4.22,11.25-3.7a.53.53,0,1,1-.14,1.06c-3.69-.47-8.29,1-10.26,3.32A.56.56,0,0,1,151.47,392.68Z" style="fill:#f0f0f0"></path><path d="M89.09,431.63c-.21,5.15-1,8.57-2.9,11.63s-5.58,4.07-9.35,3.26-8.61-3.08-9.78-7.49-1.85-7.44-1.1-12.23Z" style="fill:#263238"></path><path d="M71.71,394.14c-1.54.14-1,7.62-1.74,14.55-.8,7.43-3.12,10.54-3.85,16.63-.83,7,.47,10,3.17,14.18s12,8.08,16.48,2c3.62-5,3.66-10.4,3.18-17.33a145.59,145.59,0,0,1,.14-17.57c.2-5.2,2.09-10.86.74-11.42a47,47,0,0,1-1.41,6.45c-.09.22-.22.47-.46.49s-.51-.4-.52-.73a6,6,0,0,0-.32-2.76,4,4,0,0,0-2.8-1.57,32.78,32.78,0,0,0-8.45-.7,3.24,3.24,0,0,0-2.6,1,3.08,3.08,0,0,0-.39,1.06l-.45,1.88c0,.1-.23,1.28-.56.72a16.22,16.22,0,0,1-.14-3.51C71.74,397,71.69,394.59,71.71,394.14Z" style="fill:#37474f"></path><path d="M65.78,429.35a16.43,16.43,0,0,0,3.1,10.49c2.7,4.15,12.79,8.08,17.23,2,2.21-3,2.74-6.58,3-10.19C86.26,427.05,70,425.32,65.78,429.35Z" style="fill:#fafafa"></path><path d="M85.57,424.15a.67.67,0,0,1-.19,0c-.06,0-7.27-2.63-14.19-1a.58.58,0,0,1-.7-.39.55.55,0,0,1,.42-.65c7.33-1.72,14.67,1,14.94,1.07a.52.52,0,0,1,.29.7A.61.61,0,0,1,85.57,424.15Z" style="fill:#f0f0f0"></path><path d="M71.43,417.92a.57.57,0,0,1-.49-.35.51.51,0,0,1,.34-.68c6.88-2.32,14.63.8,14.92.94a.51.51,0,0,1,.26.71.59.59,0,0,1-.77.24c-.07,0-7.62-3-14-.89A.66.66,0,0,1,71.43,417.92Z" style="fill:#f0f0f0"></path><path d="M71.57,413a.58.58,0,0,1-.48-.34.51.51,0,0,1,.33-.69c7.56-2.69,14.93.75,15.2.9a.51.51,0,0,1,.21.72.6.6,0,0,1-.79.2c-.06,0-7.18-3.32-14.22-.83A.69.69,0,0,1,71.57,413Z" style="fill:#f0f0f0"></path><path d="M71.85,408.23a.57.57,0,0,1-.48-.34.52.52,0,0,1,.32-.69c7.09-2.62,15,.89,15.31,1.05a.5.5,0,0,1,.22.72.58.58,0,0,1-.77.21c-.07,0-7.76-3.43-14.34-1A.75.75,0,0,1,71.85,408.23Z" style="fill:#ebebeb"></path><path d="M91.83,180.61C87.08,192.86,81.08,202,79.27,237s-1.78,51.68-2.06,55.9-2.75,10.32-5.66,31-1,45.06-1,45.06,4.59,4.12,12.86,4.55a21,21,0,0,0,13.28-3.71s9.36-36.73,11.75-50.7c2.16-12.67,13.1-60.22,13.1-60.22l3.89,33.55s-3,12.26-.39,30.6,6.84,36.29,6.84,36.29,3.8,1.27,11.83,1.44c6.5.13,14.49-2.66,14.49-2.66s5.54-54,6.21-74.69,3.87-76.84-5.62-103.34Z" style="fill:#455a64"></path><path d="M80.53,303.87c2.41-9.6,4-29.14,4.49-45.16.14-4.83.29-9.84.52-15.15.86-20.84,3.28-44.13,14.7-58.83l.86.62c-7.67,9.88-11.22,23.79-13,38.2,10.89-1,13.6-11.3,17.3-25.43.51-1.93,1-3.92,1.59-6l1,.26c-.56,2.05-1.08,4-1.59,6-3.68,14.1-6.61,25.26-18.47,26.24-.73,6.35-1.13,12.77-1.39,19-.22,5.31-.37,10.31-.52,15.15-.48,16.07-2.08,35.67-4.52,45.37-.27,1.08-.56,2.22-.87,3.41-3.2,12.37-8,30.92-7,63.46a12.76,12.76,0,0,1-1.1-.71c-.91-32.23,3.86-50.67,7.05-63C80,306.09,80.26,305,80.53,303.87Z" style="fill:#37474f"></path><path d="M121.56,258.87l7.63-35.49s13.36.75,22.46-5.29c-2.38,7.19-14.09,10.26-18.68,10.95l-.79,2.24c.13,3.73.28,7.65.44,11.69.85,22.28,1.52,45.27.39,50.47-2.2,10.08-1.51,19.74-.1,32.88,1.28,11.85,3.44,26.54,4.78,34.05l-1.08-.13c-1.35-7.44-3.14-20.53-4.91-33.86s-2.3-22.62.26-33.2c1.22-5,.39-29-.42-50.17-.1-2.57-.21-5.91-.3-8.36L125.85,260l-.4,32.46Z" style="fill:#37474f"></path></g><g id="freepik--Top--inject-435"><g id="freepik--Hair--inject-435"><path d="M135.91,90.07c1-2,1.89-4.33,3.51-6s3.75-2.5,5.61-3.74,5-2.69,6.71-4.37c7.39-7.21,6.68-13.92,4.31-18.72-5.49-11.09-17-14.71-24.52-14.87-14.22-.32-21,3.6-22.27,11.05-4.36.15-6.82,2.29-9,5.46-1.81,2.6-2.31,4.72-2.29,12.68a17,17,0,0,1-1,5.64c-1,2.5-3.17,5-4,7.58-1,3-1.42,6.42-.14,9.34,2.41,5.5,6.13,6,6.15,6a7.54,7.54,0,0,1,.9-6.9,14.17,14.17,0,0,0,.57,6c1.26,3.14,4.59,5,7.85,5.77a19,19,0,0,0,8.52.28,14.33,14.33,0,0,0,7.46-4c2-2.1,3.22-4.84,5.41-6.76,1.07-.94,2.19-.91,3.36-1.58A7.38,7.38,0,0,0,135.91,90.07Z" style="fill:#37474f"></path><path d="M135.36,60.31a8.47,8.47,0,0,1,3.6-5.93,11.2,11.2,0,0,1,9.79-.86,13,13,0,0,1,6.87,6.42,12.24,12.24,0,0,1,1.16,6c-.17,2.9-2.91,8-5,10s-1.84,3.68-1.24,6.76c.42,2.2,1.67,4.13,2.53,6.19a14.15,14.15,0,0,1,.72,9.46,9.82,9.82,0,0,1-6.43,6.67,3.34,3.34,0,0,0,.23-2.18c-.43,1.56-2.09,2.39-3.61,2.89-5,1.65-13.59,1.79-14.64-5.12-.3-2,.55-4.84.82-6.88.31-2.44.65-4.87,1-7.3,1.15-8,2.44-15.88,3.82-23.78C135.08,61.9,135.21,61.1,135.36,60.31Z" style="fill:#263238"></path></g><path d="M142.73,110.9c8.76,1.64,13,5.3,14.1,15.94s2.25,29.54,2.25,29.54l-22,8.1Z" style="fill:#FF81AE"></path><path d="M142.73,110.9c8.76,1.64,13,5.3,14.1,15.94s2.25,29.54,2.25,29.54l-22,8.1Z" style="opacity:0.30000000000000004"></path><path d="M180.46,190.46c-.88-10.4-16.54-29.57-21.56-34.61L137.52,164c7.2,6.61,28.79,24,28.89,29.4Z" style="fill:#ffa8a7"></path><path d="M86,193.41C89.77,180.18,94.34,174,93.42,168c-1.43-9.35-5.65-21-6.15-27.51-1.75-23,4.52-26.68,8.56-28.6l9.31-1.84c2.42-.67,28.22-1.49,28.22-1.49l9.37,2.39a163.48,163.48,0,0,1,14,13.71c9.5,10.34,12.35,24.09,1.1,33.77,0,0-.18,8.79.06,12.86.62,5.83,3.76,13,5.4,23.19C147.79,209.79,104.51,208.15,86,193.41Z" style="fill:#FF81AE"></path><path d="M136.39,160.07c-10.71,7.59-24.94,4.72-30.71-6.49C106.73,168.82,127.12,172.64,136.39,160.07Z" style="opacity:0.1"></path><g id="freepik--Head--inject-435"><path d="M131.86,103.62s-.13,1-.35,2.83c-.16,1.27.24,2,1.85,2.06.82,1.27,13.21,12.28,1.21,14.85C118.09,126.88,106,111.92,105.14,110c3.16-1.06,4-2.93,4.66-7.62S111.54,87,111.54,87c-.19.86-4.69,2.77-8-2.17s-2-11.42,1.11-13.66c4.8-3.46,10.5.87,10.49,6.65,3,2.18,4.71-1.73,3.18-6.65,1-.51,4.27-.2,5.08-8.44,1-4,7.52-6,11.92-2.36,5-3.68,12.39-1,14.22,4.26,1.52,5,2,5.1.62,11-.48,2.07.2,5.36,0,8.18-.89,12.49-5.38,17.32-9.58,19-2.81,1.1-4.12,1.5-8.76.9" style="fill:#ffa8a7"></path><path d="M144.18,68.93l4.18,3.22a2.54,2.54,0,0,1-3.64.57A2.79,2.79,0,0,1,144.18,68.93Z" style="fill:#263238"></path><path d="M132.4,67.65l-5,2a2.57,2.57,0,0,0,3.39,1.56A2.83,2.83,0,0,0,132.4,67.65Z" style="fill:#263238"></path><path d="M127.6,76.21a2.28,2.28,0,0,0,1.3,2.87,2.12,2.12,0,0,0,2.8-1.23c.41-1.13-.27-1.52-1.4-2S128,75.08,127.6,76.21Z" style="fill:#263238"></path><path d="M142.65,78.46a2.28,2.28,0,0,0,2.29,2.16,2.13,2.13,0,0,0,2.12-2.21c-.05-1.21-.83-1.31-2.05-1.29S142.6,77.25,142.65,78.46Z" style="fill:#263238"></path><path d="M142.65,85.11l-7,1.53L135.57,74C138.31,74.43,140.52,79.36,142.65,85.11Z" style="fill:#f28f8f"></path><path d="M131.86,103.62a24.85,24.85,0,0,1-12.81-5.55,16.43,16.43,0,0,1-4.1-6.59s-.94,4.08,3.17,8.86c4.76,5.53,13.39,6.11,13.39,6.11Z" style="fill:#f28f8f"></path></g><path d="M134.42,91.64a1.66,1.66,0,0,0-.57-.71,2.41,2.41,0,0,0-.48-.3,4.86,4.86,0,0,0-1-.4,2.92,2.92,0,0,0-2.14.12c-.17.09,0,.47.14.47a8.16,8.16,0,0,1,2.15.18,4.11,4.11,0,0,1,.89.38c.29.16.63.48,1,.5C134.44,91.89,134.44,91.69,134.42,91.64Z" style="fill:#b16668"></path><path d="M159.56,160.7a.53.53,0,0,1-.43-.22,15.88,15.88,0,0,0-1.14-1.43.52.52,0,0,1,0-.73.51.51,0,0,1,.73,0,16.69,16.69,0,0,1,1.22,1.53.51.51,0,0,1-.12.72A.49.49,0,0,1,159.56,160.7Z" style="fill:#263238"></path><path d="M94.75,203.27a.53.53,0,0,1-.45-.25,14,14,0,0,1-.91-1.74.52.52,0,0,1,.27-.68.51.51,0,0,1,.68.27,13.34,13.34,0,0,0,.85,1.61.53.53,0,0,1-.17.72A.54.54,0,0,1,94.75,203.27Z" style="fill:#263238"></path><path d="M84,169.25a217.15,217.15,0,0,0,14.17,21.23,7.43,7.43,0,0,0,7.25,3.13c4.27-.61,7.61.81,11.57,1.32,1.39.18,2.83,0,4.21.23,1.55.24.52,2.22-.22,2.94a6.85,6.85,0,0,1-3.35,1.66,20.55,20.55,0,0,1-3.76.35l-2,.06a4.55,4.55,0,0,0-1.65.08c-.86.42-.17,1.22.3,1.69a17.49,17.49,0,0,0,3.79,2.55,33.16,33.16,0,0,0,6.21,3.06c3.67,1.22,7.72,1.14,11.26,2.69a3.75,3.75,0,0,1,1.76,1.31.85.85,0,0,1,.17.57.82.82,0,0,1-.28.49c-.87.86-2.39.68-3.29,1.51a7.62,7.62,0,0,0-.81,1.06,3.82,3.82,0,0,1-2.59,1.49,6.65,6.65,0,0,0-1.42.18,5.36,5.36,0,0,0-1.56,1.18c-1.86,1.64-4.55,1.84-7,1.91a44.69,44.69,0,0,1-5.67-.13,12.23,12.23,0,0,1-2.84-.48c-4.42-1.56-10.15-5.92-16.76-11.81S72.82,191,67.8,185.62c-9.29-10-9.57-11.21-7-19.71,1.75-5.69,9.72-28.42,14.11-38.48,6.27-14.34,12.83-13.24,20.88-15.59,2.06,3.71,2.9,18.64-.9,27.88C88.72,154.3,84,169.25,84,169.25Z" style="fill:#ffa8a7"></path><path d="M95.83,111.84c-3.54.6-11.81,2.07-14.69,4.79-4.52,4.28-6.83,10-10.46,19.8s-9.4,27-9.4,27,9.46-2.05,23.12,5.81l10-27.21S102.34,126.7,95.83,111.84Z" style="fill:#FF81AE"></path><path d="M95.83,111.84c-3.54.6-11.81,2.07-14.69,4.79-4.52,4.28-6.83,10-10.46,19.8s-9.4,27-9.4,27,9.46-2.05,23.12,5.81l10-27.21S102.34,126.7,95.83,111.84Z" style="opacity:0.30000000000000004"></path><path d="M168.5,186.94a4,4,0,0,0,1-.75,2.45,2.45,0,0,0,.56-1,6,6,0,0,0,.07-2.48,2.89,2.89,0,0,1,.58,1.24,2.85,2.85,0,0,1-.05,1.42,2.14,2.14,0,0,1-.84,1.18A2.18,2.18,0,0,1,168.5,186.94Z" style="fill:#f28f8f"></path><path d="M151.51,213.35a.85.85,0,0,0,.05.59.78.78,0,0,0,.42.36c1.12.51,2.48-.19,3.61.27a6.83,6.83,0,0,1,1.14.72,3.8,3.8,0,0,0,2.94.48,6.33,6.33,0,0,1,1.4-.33,5.07,5.07,0,0,1,1.87.57c2.51,1,4.83,0,7.17-.9l.24-.08a12.91,12.91,0,0,0,3.23-1.52,11.74,11.74,0,0,0,2.15-2.19,24,24,0,0,0,2.71-3.43,19.88,19.88,0,0,0,1.53-4.24,28.8,28.8,0,0,0,.95-8.72c-.15-3.38-.67-9.05-4.08-10.87-1.21-.65-3.4-1.69-4.55-.49a16.26,16.26,0,0,1-2.49,2.63c-1.05.72-2.39,1.17-3.42,1.9-2.07,1.5-2.93,2.69-5.19,3.89a40.86,40.86,0,0,1-4.51,1.82,1.41,1.41,0,0,0-.85.58c-.3.52.09,1.16.54,1.54a6,6,0,0,0,4.89,1.09,28.18,28.18,0,0,0,4.92-1.58c.2-.07.44-.13.58,0a.54.54,0,0,1,.06.55c-1.3,4.72-4.77,8.63-8.58,11.58-1.79,1.39-3.88,2.31-5.54,3.91A3.67,3.67,0,0,0,151.51,213.35Z" style="fill:#ffa8a7"></path></g></g></g></svg>
