<svg xmlns="http://www.w3.org/2000/svg" viewBox="0 0 500 500"><g id="freepik--Floor--inject-136"><ellipse id="freepik--floor--inject-136" cx="250" cy="390.67" rx="223.87" ry="99.99" style="fill:#f5f5f5"></ellipse></g><g id="freepik--Shadows--inject-136"><ellipse id="freepik--Shadow--inject-136" cx="96.3" cy="406.69" rx="53.57" ry="30.93" style="fill:#e0e0e0"></ellipse><ellipse id="freepik--shadow--inject-136" cx="189.03" cy="376.13" rx="56.47" ry="32.61" style="fill:#e0e0e0"></ellipse><ellipse id="freepik--shadow--inject-136" cx="285.79" cy="376.13" rx="62.61" ry="36.15" style="fill:#e0e0e0"></ellipse><ellipse id="freepik--shadow--inject-136" cx="397.96" cy="404.41" rx="62.61" ry="36.15" style="fill:#e0e0e0"></ellipse></g><g id="freepik--Plants--inject-136"><g id="freepik--plants--inject-136"><path d="M65.41,371.9S66.6,358.52,62.18,347,50.15,327.4,42,325s-16.47,3.91-8.65,11S55.86,351.77,59.11,373Z" style="fill:#FF81AE"></path><path d="M65.41,371.9S66.6,358.52,62.18,347,50.15,327.4,42,325s-16.47,3.91-8.65,11S55.86,351.77,59.11,373Z" style="opacity:0.15"></path><path d="M63.66,368h.1a.45.45,0,0,0,.36-.53C59.77,344,44.91,331.51,37.66,328.19a.45.45,0,0,0-.6.22.47.47,0,0,0,.22.61c7.11,3.25,21.67,15.51,25.95,38.61A.47.47,0,0,0,63.66,368Z" style="fill:#fff"></path><path d="M66.12,393.67c0-.67,0-1.34,0-2a22.21,22.21,0,0,1,.77-5.57c.51-1.78,1.72-3.19,2.15-5a7.62,7.62,0,0,0-1.39-5.68c-1.1-1.56-2.72-2.81-3.32-4.63-.75-2.28.67-4.58,0-6.68s-2.94-3.41-4.85-3.93c-2.55-.69-5.26-.51-7.83-1.11-3.33-.78-6.2-2.81-9.22-4.41s-6.54-2.84-9.82-1.87a7.93,7.93,0,0,0-5.07,10.63c.73,1.77,2.08,3.21,3.07,4.86a6,6,0,0,1,.77,5.33c-.56,1.34-1.55,2.35-2,3.73-1.18,3.55-.52,6.74,3,8.56,2.62,1.35,5.63,1,8.26,2.15,1.9.86,3.5,2.62,3.35,4.8-.07,1.12-.39,2.22-.5,3.34-.7,7.34,4.15,12,10.41,12.92a19.3,19.3,0,0,0,9.63-1.4c3.16-1.54,2.52-4,2.62-7.12C66.31,398.3,66.15,396,66.12,393.67Z" style="fill:#FF81AE"></path><path d="M39.05,378a.39.39,0,0,0,.26,0,22.62,22.62,0,0,1,19.25,1.39.43.43,0,0,0,.58-.17.43.43,0,0,0-.17-.58,23.48,23.48,0,0,0-20-1.41.43.43,0,0,0-.2.57A.41.41,0,0,0,39.05,378Z" style="fill:#fff"></path><path d="M66.72,400.68a.41.41,0,0,1-.41-.38c-.74-17.91-18.71-36.84-30.76-42a.4.4,0,1,1,.31-.73c12.24,5.25,30.5,24.49,31.25,42.7a.42.42,0,0,1-.39.42Z" style="fill:#fff"></path></g><g id="freepik--plants--inject-136"><path d="M432.43,363.77s-3.7-12.91-1.54-25,8.09-21.57,15.67-25.45,16.91.73,10.58,9.18S438,342.19,438.82,363.62Z" style="fill:#FF81AE"></path><path d="M432.43,363.77s-3.7-12.91-1.54-25,8.09-21.57,15.67-25.45,16.91.73,10.58,9.18S438,342.19,438.82,363.62Z" style="opacity:0.15"></path><path d="M433.41,359.61h-.1a.45.45,0,0,1-.45-.45c-.18-23.87,12-38.94,18.53-43.58a.44.44,0,0,1,.63.11.45.45,0,0,1-.1.63c-6.36,4.54-18.33,19.34-18.16,42.83A.44.44,0,0,1,433.41,359.61Z" style="fill:#fff"></path><path d="M439.72,380.37c-.12-.66-.24-1.31-.39-2a22.28,22.28,0,0,0-1.81-5.32c-.84-1.64-2.3-2.8-3-4.46a7.64,7.64,0,0,1,.28-5.84c.79-1.74,2.15-3.27,2.39-5.17.3-2.39-1.52-4.37-1.32-6.55s2.24-3.91,4-4.78c2.37-1.16,5.07-1.5,7.48-2.58,3.12-1.4,5.55-3.93,8.21-6.08s5.89-4,9.29-3.69a7.91,7.91,0,0,1,7,9.47c-.38,1.88-1.43,3.55-2.09,5.36a6,6,0,0,0,.26,5.38c.79,1.2,2,2,2.67,3.28,1.83,3.27,1.79,6.52-1.35,9-2.31,1.82-5.35,2-7.7,3.68-1.7,1.2-2.94,3.24-2.38,5.34.29,1.09.8,2.11,1.12,3.19,2.09,7.07-1.79,12.58-7.76,14.66a19.22,19.22,0,0,1-9.73.44c-3.39-.91-3.23-3.45-3.92-6.49C440.42,385,440.13,382.66,439.72,380.37Z" style="fill:#FF81AE"></path><path d="M463.34,359.9a.46.46,0,0,1-.26,0,22.63,22.63,0,0,0-18.65,5,.43.43,0,0,1-.54-.67,23.5,23.5,0,0,1,19.4-5.18.43.43,0,0,1,0,.81Z" style="fill:#fff"></path><path d="M440.47,387.37a.38.38,0,0,0,.32-.45c-2.67-17.72,11.39-39.71,22.24-47.08a.4.4,0,0,0,.11-.55.41.41,0,0,0-.56-.11C451.56,346.66,437.29,369,440,387a.4.4,0,0,0,.46.33Z" style="fill:#fff"></path></g></g><g id="freepik--character-4--inject-136"><g id="freepik--Character--inject-136"><path d="M386.2,400.22a5.79,5.79,0,0,0,.54-1.59,8.74,8.74,0,0,0-.73-5.25,13.62,13.62,0,0,1-1.22-6.29c.1-2.26.36-4.23.7-6.68,1.39-10.12,4.15-26.8,4.25-30.79.17-6.78.17-10.14-1.06-15.47,0,0,4.58-26,6.5-34.78,3.08-14,5.16-24.9,4.07-37.1-1-11,.18-15.66-6-23-.71-1-1.17-1.54-1.17-1.54s-20.6,24.53-21.83,28.67c-.75,13.63-2.19,40-2.6,52.79-.34,10.66.08,12.11,1.27,24.62,1,10.31,2,21.71,3.19,33.83.38,3.84.68,8.44-.5,12.16-2.42,7.68-9.24,12.24-15,17.13-1,.86-2.1,1.89-2.13,3.24a3.22,3.22,0,0,0,1.78,2.74,11.46,11.46,0,0,0,3.91.92,16.59,16.59,0,0,0,4.33.37c2.45-.24,5.17-.39,7.43-1.5,2-1,3.52-3.39,5.1-5s2.73-3.27,4.56-4.45C383,402.24,385.3,401.87,386.2,400.22Z" style="fill:#ffa8a7"></path><path d="M354,411.13a4.6,4.6,0,0,0,.47,2.87c.73.93,3.38,3.38,10.22,3.1,6.57-.28,10.42-3.53,11.77-5.36s2.58-3.6,3.91-5.08a11.24,11.24,0,0,1,4.52-2.55c1.29-.42,1.65-.91,1.53-2.84C386,399.46,354,411.13,354,411.13Z" style="fill:#37474f"></path><path d="M384.77,387.61c0,.39,0,.79,0,1.2,0,0,.1,2.75-1.64,3.4-2.07.75-1.93-.81-3.49-2.09-3.41-2.79-7.56-2.56-8.55-.19-1.31,3.14-6,9-7.63,10.58a36.85,36.85,0,0,1-4.32,3.67c-1.65,1.21-5.66,3.41-5.27,6.09s2.83,4.14,6.14,4.71A19,19,0,0,0,373,412.34c3-2,5.68-6,6.81-7.15,2.06-2.1,5.37-2.54,6.43-3.6a9,9,0,0,0,.73-6.1c-.42-2.39-1-4.53-1.1-5.73S385.6,387.7,384.77,387.61Z" style="fill:#455a64"></path><path d="M364.27,404a8.81,8.81,0,0,0-4.43-.3,2.29,2.29,0,0,0-1.18.5c-1.66,1.21-5.31,3.33-4.91,6s2.75,4.31,6.05,4.88c3,.52,8.37.48,12.13-2.13A10.74,10.74,0,0,0,364.27,404Z" style="fill:#fafafa"></path><path d="M447.93,390.32a8.06,8.06,0,0,0-2.25-3.38,38.53,38.53,0,0,1-3.28-3.11,14.47,14.47,0,0,1-1.88-3.87c-.34-.83-1.15-3.61-2.19-7.32-2.76-9.81-7.39-25.73-8.92-29.39-2.62-6.22-4.94-10.63-8.24-13.45,0,0-.77-27.55-1.07-36.56-.45-13.3-2-27.67-8.16-37-6.08-9.1-11.24-12-19.89-16-1-.55-1.68-.88-1.68-.88s-2.89,42-1.11,40.19c2.3,10.85,5.35,34.15,7.87,45.3,2.28,10.06,2.89,11.92,9.64,22.53,5.51,8.66,12.07,19,18.09,29.45,2.62,4.56,5.53,10.67,6.13,16a30.18,30.18,0,0,1-5.24,20.52,4.16,4.16,0,0,0-1.13,2.48c.05,1.31,1.36,2.15,2.55,2.57a12.88,12.88,0,0,0,9.07-.26,13.36,13.36,0,0,0,8.08-12.72,16.44,16.44,0,0,1,1.69-8.93c.84-1.54,2-3,2.11-4.77A4.5,4.5,0,0,0,447.93,390.32Z" style="fill:#ffa8a7"></path><path d="M424.67,418.72a4.19,4.19,0,0,0,3.22,3.14,15.13,15.13,0,0,0,12.36-2.47c5.19-3.85,5.53-7.24,5.76-10.12s-.27-7.13.7-9.31,2.49-3.3,2.84-4.94-1-4.12-1-4.12Z" style="fill:#37474f"></path><path d="M442.4,383.83s.55,1,.66,1.27a4.17,4.17,0,0,1-1.12,5.19c-.8.72-2.55-.05-4-.17a8.3,8.3,0,0,0-7.24,3c.15,4.87.27,7.78-1.05,11.71a44.2,44.2,0,0,1-3.18,5.9c-1.28,1.68-3.53,4.41-2.35,6.84a5,5,0,0,0,2.93,2.32,14,14,0,0,0,11.84-2c4.7-3.13,5.58-6.87,6-10.1s-.29-6.68.88-9.05,2.76-3.22,3.19-6.49a5.05,5.05,0,0,0-1.81-4C444.56,385.8,443.11,382.85,442.4,383.83Z" style="fill:#455a64"></path><path d="M439.28,410.73A10.1,10.1,0,0,0,427,410h0a7.1,7.1,0,0,0-.8.9c-1.27,1.68-3.52,4.27-2.34,6.69a4.47,4.47,0,0,0,3,2.48,15.29,15.29,0,0,0,14.81-4.49l.1-.11.08-.09A9,9,0,0,0,439.28,410.73Z" style="fill:#fafafa"></path><path d="M421.55,329.66s.18-41.62-.34-50.75c-.76-13.53-5.61-20.72-5.61-20.72L369.77,266c-1.06,16.61-2.7,49.54-2.7,49.54-.42,11.75-.05,14.57.54,19.84s2.25,18.79,2.25,18.79,6.59,3.62,19.37.5c.76-6.44,1.74-12.37-.37-20.53l4.89-26.39L396,321.52c.67,4.17,1,5.6,2.13,10.51s2.14,6.79,5.27,11.36c4.05,5.9,10.23,15.19,10.23,15.19,11.29-.64,18.11-9.31,18.11-9.31C427.54,334.57,423.81,331.44,421.55,329.66Z" style="fill:#FF81AE"></path><path d="M421.55,329.66s.18-41.62-.34-50.75c-.76-13.53-5.61-20.72-5.61-20.72L369.77,266c-1.06,16.61-2.7,49.54-2.7,49.54-.42,11.75-.05,14.57.54,19.84s2.25,18.79,2.25,18.79,6.59,3.62,19.37.5c.76-6.44,1.74-12.37-.37-20.53l4.89-26.39L396,321.52c.67,4.17,1,5.6,2.13,10.51s2.14,6.79,5.27,11.36c4.05,5.9,10.23,15.19,10.23,15.19,11.29-.64,18.11-9.31,18.11-9.31C427.54,334.57,423.81,331.44,421.55,329.66Z" style="opacity:0.30000000000000004"></path><path d="M393.75,307.76l-2.91-17.2a22,22,0,0,1-10.42-2.73s1.37,3.65,8.26,4.56l3.44,15.19-3.26,26.57Z" style="opacity:0.15"></path><path d="M416.69,171.93c-4.31-10.14-10.53-15-20.15-16-10-1-14.24.71-18.62,4.39-9.47.54-14,17.29-2.54,22.64a49.67,49.67,0,0,0,2.3,6.06,6.32,6.32,0,0,0-6.59,1.51c-4.38,4.13-.75,9.9-.75,9.9-4.7-.91-11.57,9.2-2.38,20.36s37,5.91,45.49-6.24S420.53,181,416.69,171.93Z" style="fill:#37474f"></path><path d="M375.91,254.65c12.12-36,6.8-39.13,8.25-46.72-10.08-.35-14.57,3.61-17.27,14.5-1.32,5.32-3.56,21.53-6.14,29.95-2.32,7.6-6.16,15.79-11.44,21.91a9.76,9.76,0,0,1-4.63,2.45c-3,.82-4.18,2.66-6.85,3.81-2.5,1.08-3,1.41-2.93,2,.06.73.8,1.56,2.81,1.73a8.9,8.9,0,0,0,4.71-.92,51.21,51.21,0,0,1-6.66,5.48c-4.92,3.32-5,8,2.56,8.57,5.36.42,9.23,0,16.75-8.13a105.25,105.25,0,0,0,8.43-11.07C371.92,265.93,373.57,261.58,375.91,254.65Z" style="fill:#ffa8a7"></path><path d="M382.6,207.83c-4.39-.17-9.75.42-12.87,5.78s-5.06,19.5-7.52,30.94a26.38,26.38,0,0,0,17.86,5l6.18-30.26Z" style="fill:#455a64"></path><path d="M416.48,210.7c4.35.8,5.21,5.32,5.07,9.88a75.4,75.4,0,0,1-1.36,11.63c-1.26,6.49-4.89,24.46-4.89,24.46a36.15,36.15,0,0,1,5.55,16.23c-7,7.87-36.4,12-51.7.48.67-20.67.71-41.49,2-48.24,2.57-13.12,6.33-16.16,11-17.25a11.48,11.48,0,0,1,2.73.05l18.46.73Z" style="fill:#FF81AE"></path><g style="opacity:0.4"><path d="M416.48,210.7c4.35.8,5.21,5.32,5.07,9.88a75.4,75.4,0,0,1-1.36,11.63c-1.26,6.49-4.89,24.46-4.89,24.46a36.15,36.15,0,0,1,5.55,16.23c-7,7.87-36.4,12-51.7.48.67-20.67.71-41.49,2-48.24,2.57-13.12,6.33-16.16,11-17.25a11.48,11.48,0,0,1,2.73.05l18.46.73Z" style="fill:#fff"></path></g><path d="M467.4,241.32a8,8,0,0,1,5.69-1.82,20.14,20.14,0,0,0,3.18,0,4.08,4.08,0,0,0,3.35-2.14c.14-.32.23-.66.38-1,.24-.5.63-.92.9-1.41a3.26,3.26,0,0,0,.29-2.33,2,2,0,0,1-.13-.93,1.91,1.91,0,0,1,.41-.68,3.35,3.35,0,0,0,.3-3.37,5.54,5.54,0,0,1-.39-.86c-.15-.64.2-1.29.22-2,.13-2.95-4.71-2.52-6.44-2.12-.49.11-2.92.61-4,.87.18-1.31.82-2.67.51-4.94-.41-3.12-1.94-4.38-2.77-3-.53.92-.21,1.31-2,4.88-.55,1.1-2.37,3.58-2.88,5.45-.45,1.66-1.16,3.19-4.28,6.29-3.35,3.33-15.94,13.24-15.94,13.24s-11-18.76-14.49-25a21.05,21.05,0,0,0-14.43-10.19l2.39,24.89s12.36,18.28,18.12,24.74c3.89,4.37,7.34,4.32,11.59,1.84C451.4,259.34,460.74,248,467.4,241.32Z" style="fill:#ffa8a7"></path><path d="M443.79,245.59c-3.45,2.64-6.25,8.92-6.25,8.92s-.3-4.95,5.19-10.74Z" style="fill:#f28f8f"></path><path d="M414.67,210.42s5.77,0,9.94,3.68c4.85,4.24,16.26,25.79,16.26,25.79a17.75,17.75,0,0,1-5.79,6.39,24,24,0,0,1-8.54,3.87l-10.21-14.38S410.24,223.61,414.67,210.42Z" style="fill:#455a64"></path><path d="M470.1,224.06c-1.34.4-2.21,1.34-2.58,3.73-.23,1.42-1.29,3.86-3,4.63a3.69,3.69,0,0,0,2.14-.5c.85-.62,1.06-.67,1.38-.17a2.71,2.71,0,0,0,.94.8,1.87,1.87,0,0,0-.55,2.16c.51,1.36,3.79,2,6.72,1.07,0,0-4.6.58-5.37-1s1.87-2.92,3.67-3.08c0,0-4.39.25-4.79-1.26s1.53-2.26,4.13-2.44c0,0-3.6,0-4-1.3C468.35,225.1,469.56,224.46,470.1,224.06Z" style="fill:#f28f8f"></path><path d="M404.47,185.4c1.76,1.59,2.79.21,3.83-1s4.37-2.18,5.67.94c1.65,4-1.64,7.58-3.59,8.12-3.24.9-4.2-.74-4.2-.74l-1.44,16.24c-5.32,8-25.27,9.81-16.28-.17l.5-6.38a19.47,19.47,0,0,1-6.22-.33c-2.45-.73-5.17-2.36-6.5-6.78-1.05-3.48-2.74-11.18-.79-22.4a15.74,15.74,0,0,1,3.6-7.3,29.66,29.66,0,0,0,16.64,14.6C401.3,182,402.26,183.41,404.47,185.4Z" style="fill:#ffa8a7"></path><path d="M390.88,182.62a1.55,1.55,0,1,0,1.6-1.61A1.61,1.61,0,0,0,390.88,182.62Z" style="fill:#263238"></path><path d="M391.45,192.63l-5,1.73a2.57,2.57,0,0,0,3.28,1.8A2.86,2.86,0,0,0,391.45,192.63Z" style="fill:#b16668"></path><path d="M391.47,194.27a2.14,2.14,0,0,0-1.12-.27,2.19,2.19,0,0,0-2.06,2.2,2.43,2.43,0,0,0,1.46,0A2.74,2.74,0,0,0,391.47,194.27Z" style="fill:#f28f8f"></path><path d="M376.33,178.77l4-1.34a2,2,0,0,0-2.57-1.43A2.29,2.29,0,0,0,376.33,178.77Z" style="fill:#263238"></path><path d="M377.73,182.33a1.55,1.55,0,1,0,1.6-1.61A1.61,1.61,0,0,0,377.73,182.33Z" style="fill:#263238"></path><polygon points="385.59 180.56 385.85 190.02 380.95 188.75 385.59 180.56" style="fill:#f28f8f"></polygon><path d="M389,202.39s6.79-1.14,10.7-3.54c1.78-1.09,2.47-3.73,2.95-4.83,0,0,.09,4.41-1.7,6.44-3.07,3.49-12.14,4.64-12.14,4.64Z" style="fill:#f28f8f"></path><path d="M409.52,183.44a5.29,5.29,0,0,0-2.73,3.49,23.79,23.79,0,0,0-.5,3.71l-.05,2.26s-3.35,4.6-7.07,6.66-13,4.44-17.91,2.3-7-9.66-6.65-14.66c0,0,6.93-2.29,9.52-1.83s8.55,2.68,10.93,3.08c5.16.87,6.69.71,10.14-2.46C407.82,183.57,409.52,183.44,409.52,183.44Z" style="fill:#FF81AE"></path><path d="M409.52,183.44a6.93,6.93,0,0,0-2.73,3.49,23.79,23.79,0,0,0-.5,3.71l-.05,2.26s-3.35,4.6-7.07,6.66-13,4.44-17.91,2.3-7-9.66-6.65-14.66c0,0,6.93-2.29,9.52-1.83s8.55,2.68,10.93,3.08c5.16.87,6.92.94,10.14-2.46C408.11,182.91,409.52,183.44,409.52,183.44Z" style="fill:#fff;opacity:0.7000000000000001"></path><path d="M374.56,188.36c0-.4,0-.79.05-1.16,0,0,6.93-2.29,9.52-1.83s8.55,2.68,10.93,3.08c5.16.87,6.7.19,10.21-2.9,3-2.61,4.25-2.11,4.25-2.11a9.43,9.43,0,0,0-2.51,3.9c-.14.43-.3,1.12-.43,1.76a16.38,16.38,0,0,0-.32,2.88l0,.92a13.18,13.18,0,0,1-3.3,3.74,8.93,8.93,0,0,0,1.89-5.12,12,12,0,0,1,1.4-5.52,8.09,8.09,0,0,1-5,3.73c-4.58,1.22-8.13-.53-14.35-2.41C382.12,185.87,379.89,186.78,374.56,188.36Z" style="fill:#fff"></path></g></g><g id="freepik--characters-2-and-3--inject-136"><g id="freepik--Woman--inject-136"><path d="M272,109.75,263.22,137s-16.29,11.24-33.4,23.73c-5.79,4.22-6.29,4.08-17.42,3.34l2.93-13.18s21-18.75,23.68-21C255.38,115.94,260,110.11,272,109.75Z" style="fill:#f28f8f"></path><path d="M274.93,109.47c-8.65.43-11.15-.51-19.63,6.17-7.86,6.19-25.48,21.34-25.48,21.34s5.64,13.84,12.4,16L268,135.67Z" style="fill:#455a64"></path><path d="M166,337.78c.51,4.39,1,8.36,1.51,11.27s.62,6,.73,8.74c0,.74.12,1.42.12,2.15v1.8s12.37,9.81,12.37-3.55V356.3l.55-8c.2-2.52.46-5.6.75-9Z" style="fill:#ffa8a7"></path><path d="M189.13,316.34c-.12,1.26-.25,2.53-.37,3.82-.54,5.9-.89,11.82-1.59,17.71-.13,1.13-.26,2.31-.39,3.62,0,0,11.79,2.05,12.1.52.4-1.88.74-3.92.74-3.92,1.56-5.06,3.64-11.42,5.94-18.24Z" style="fill:#ffa8a7"></path><path d="M166,342.58c-1.58-12.23-3.51-30.57-4.1-37.47-1.61-18.65,3.44-30.83,3.44-30.83S163.53,256,162,239.84c-3.22-33.93-2.21-47.17,8.61-62.05l48.83.8c4.33,18.49,7.45,81.45,4.66,89.68-1.74,5.1-11.83,32.88-19.07,54.58,0,0-9.53,4.16-16.75-2.88,1.37-14.8,2.66-27.54,3.45-33.55,1.49-11.26,8.26-20.28,8.26-20.28l-6.6-40.76s-2.3,32.69-3.84,46.17c-1.13,9.87-2.27,19.94-4.38,39-1,9.17-2.32,22-3.15,31.65C182,342.17,173.71,346.6,166,342.58Z" style="fill:#455a64"></path><path d="M193.39,225.38l1.23-15.19s10.83.15,17.3-6.22c0,0-3.57,7.79-14.06,9.42L196.3,227,200,266.14Z" style="fill:#37474f"></path><path d="M166.32,367.81c-.58,2.66.27,9.91.27,9.91s1.21,2.48,5.34,4l1.58-10.15Z" style="fill:#263238"></path><polygon points="171.93 381.76 180.87 378.58 182.84 370.53 172.84 375.9 171.93 381.76"></polygon><path d="M180.72,358.19V356.3c1.24.56,4.18,10.36,8,17,3.48,6.09,10.16,9.37,12.36,12,3,3.52-2.49,8.3-11.47,6.61-4.46-.84-11.24-3.51-13.14-6.46s-2.64-8.42-4.18-10.58-5.15-4.61-6-7.09a13.74,13.74,0,0,1-.15-6.92c.64-2.29,1.18-5.06,2-4.83l.09,1.73c.63,1.2,2.82,2.57,7.34,2.7C177.72,360.55,179.79,360.17,180.72,358.19Z" style="fill:#37474f"></path><path d="M183.15,347.86c-.87,2.58-.79,9.88-.79,9.88s.94,2.59,4.87,4.59l2.66-9.92Z" style="fill:#263238"></path><polygon points="187.23 362.33 196.46 360.12 199.28 352.33 188.77 356.61 187.23 362.33"></polygon><path d="M198.94,340.25l.68-2.16c1.17.69,2.13,10.61,5.2,17.65,2.81,6.43,9.1,10.4,11,13.26,2.56,3.81-3.37,8-12.12,5.34-4.34-1.31-10.8-4.69-12.36-7.82s-1.74-8.66-3-11-4.62-5.13-5.16-7.68c-.3-1.41.62-4.29,1.58-6.71.89-2.21,1.83-4.89,2.59-4.58l-.19,1.75c.5,1.26,1.52,2.64,6,3.25C195.26,341.86,197.8,342.12,198.94,340.25Z" style="fill:#37474f"></path><path d="M184,150.74c-5,1.56-10.63,1.84-15.37-.41s-8.27-7.42-7.54-12.62a10,10,0,0,1-7.74-7.41c-.83-3.64.48-7.48,2.54-10.59s4.81-5.68,7.28-8.47,5.36-6.53,5.45-10.55c.12-5-.28-10-.12-15,.19-5.89.31-14.09,7.17-20.51a10.22,10.22,0,0,1,6.13-2.75c2.82-5.36,8.51-7.72,13.27-8.56,2.07-.36,5.63-.76,12,.2a20.26,20.26,0,0,1,10.71,5.29,15.82,15.82,0,0,1,4.57,10.49,13,13,0,0,1-3,8.76,7.29,7.29,0,0,1,2,3.52c.35,2.94-.38,6.4-5.18,8.3H213s1.74,9,.87,16.93C209,151.1,187.51,149.62,184,150.74Z" style="fill:#263238"></path><path d="M208.06,112.55c5.93.51,10.18,1.73,18.73,13.3,3.52,4.77,15.43,22.28,19.55,28.26,4,.62,12.56,3,12.56,3,3.43,3.35,1.22,11.23.62,14.17l-16.59-1.54a8.67,8.67,0,0,1-5.71-2.91c-12.39-14.09-20.67-24.21-20.67-24.21Z" style="fill:#ffa8a7"></path><path d="M218,166.76c.7-3.27,1.52-9.43,2-13.92,8.22-7.69,5.92-16.08,2.93-22.25-6-12.35-12.37-18-15.06-18l-16.89,0c-8.08,1-13.6,1.87-15.56,2.3-5,1.09-4.83,4.69-5.12,10-.31,5.79-.8,6.72.54,16.32l6.81,14.7.6,9.06s-13,15.94-15.95,28.33c0,0,7.4-3.18,12.11-8.68,0,0,5,12.52,25.91,11,15.89-1.13,21.08-10.46,21.08-10.46Z" style="fill:#FF81AE"></path><path d="M218,166.76c.7-3.27,1.52-9.43,2-13.92,8.22-7.69,5.92-16.08,2.93-22.25-6-12.35-12.37-18-15.06-18l-16.89,0c-8.08,1-13.6,1.87-15.56,2.3-5,1.09-4.83,4.69-5.12,10-.31,5.79-.8,6.72.54,16.32l6.81,14.7.6,9.06s-13,15.94-15.95,28.33c0,0,7.4-3.18,12.11-8.68,0,0,5,12.52,25.91,11,15.89-1.13,21.08-10.46,21.08-10.46Z" style="fill:#fff;opacity:0.4"></path><path d="M172.21,173.18c0,1.81,2.35,5.19,4.22,5.31s3.13-.3,4.13-2.65,0-8.31,0-8.31l-8.17,5.38Z" style="opacity:0.1"></path><path d="M177.86,158.8c.21,3.23,2,6.21,3,8s-.08,11.43-4.41,10c-3.43-1.12-5.18-4.67-4.7-9.56.23-2.32,1-7.16,2-9.11a9.71,9.71,0,0,1,3.35-3.45l.52,1.12Z" style="fill:#f28f8f"></path><path d="M184.73,145.38a13.2,13.2,0,0,0,11.53,8.52A13.92,13.92,0,0,0,209,148.09s-1.61,9.58-13,8.12S184.73,145.38,184.73,145.38Z" style="opacity:0.1"></path><path d="M163.31,159.68c4.76-7.5,11.05-21.58,11.05-21.58,3.39-7.33,4-18.64,2-23.47a28.79,28.79,0,0,0-5.51,1.14,16.15,16.15,0,0,0-10.14,8c-2.56,4.31-10.85,25.89-14,32.6l-15.49-14.12c-3.67-3.64-4.2-8.46-6.37-11.61s-4.82-4.18-7.34-6.91-3.4-4.66-4.61-2.75,1.46,5.84,1.9,6.77,3.38,3.35-.85,2.66-11.79-6.62-13.66-7.76-2.22,1.3-1.49,3-.12,6.12,1.11,9c1.3,3,2.06,4.36,5.74,6.78,3.42,2.27,11.07,4.32,14.56,7.5s11.68,13.6,16.67,19.87c6.34,8,12.32,12,17.09,5.82C157.66,169.86,161.54,162.46,163.31,159.68Z" style="fill:#ffa8a7"></path><path d="M146.73,156.37c3,2.89,5.49,6.59,5.65,9.41,0,0,3.07-3.7-4.39-12.21Z" style="fill:#f28f8f"></path><path d="M210.15,66.45c2.8,1.57,6.39,8.44,6.4,23,0,12.37-3.92,15.52-5.91,16.45s-5.88.48-9.67-.06l.18,7.42s10.69,11.14,2,12.46c-4.31.65-9.84-2-13.58-4.77a15.06,15.06,0,0,1-5-7.68l-.31-16.13s-2.17,2.21-6-1c-3.17-2.64-4.33-7.2-2-9.72A5.43,5.43,0,0,1,185,88s2.21.13,4.33-4a33.27,33.27,0,0,0,10.41-2.87C209.65,76.75,210.57,69.61,210.15,66.45Z" style="fill:#ffa8a7"></path><path d="M200.64,85.35a1.71,1.71,0,1,1-1.83-1.65A1.74,1.74,0,0,1,200.64,85.35Z" style="fill:#263238"></path><path d="M202.65,96.85l4,1.19a2.06,2.06,0,0,1-2.57,1.49A2.19,2.19,0,0,1,202.65,96.85Z" style="fill:#f28f8f"></path><path d="M214.42,80.8l-3.19-2.1a1.84,1.84,0,0,1,2.6-.6A2,2,0,0,1,214.42,80.8Z" style="fill:#263238"></path><path d="M198.73,79.62l-3.54,1.45a1.83,1.83,0,0,1,1-2.48A2,2,0,0,1,198.73,79.62Z" style="fill:#263238"></path><path d="M213.83,84.49A1.71,1.71,0,1,1,212,82.84,1.74,1.74,0,0,1,213.83,84.49Z" style="fill:#263238"></path><polygon points="206.19 84.61 206.67 93.96 211.55 92.31 206.19 84.61" style="fill:#f28f8f"></polygon><path d="M201,105.87c-4-.42-12.22-2.58-13.57-5.78a8.37,8.37,0,0,0,3,4.06c2.5,2,10.67,4.2,10.67,4.2Z" style="fill:#f28f8f"></path><path d="M185,88l0,1.81h0c1.59,2.93,4.49,2.61,4.43.16l-.14-6Z" style="fill:#263238"></path><g id="freepik--Mask--inject-136"><path d="M182.34,85.48a13.76,13.76,0,0,1,2.82,5,23.47,23.47,0,0,1,.5,3.69l.05,2.24s.91,4.94,4.6,7,15.62,5.38,20.54,3.26,6.23-11.63,5.88-16.6c0,0-6.83-2.28-9.41-1.82s-8.5,2.65-10.86,3c-5.13.87-7,.31-10.19-3.07C183.38,85.18,182.34,85.48,182.34,85.48Z" style="fill:#FF81AE"></path><path d="M182.34,85.48a13.76,13.76,0,0,1,2.82,5,23.47,23.47,0,0,1,.5,3.69l.05,2.24s.91,4.94,4.6,7,15.62,5.38,20.54,3.26,6.23-11.63,5.88-16.6c0,0-6.83-2.28-9.41-1.82s-8.5,2.65-10.86,3c-5.13.87-7,.31-10.19-3.07C183.38,85.18,182.34,85.48,182.34,85.48Z" style="fill:#fff;opacity:0.7000000000000001"></path><path d="M216.78,91.23c0-.4,0-.78-.05-1.15,0,0-6.83-2.28-9.41-1.82s-8.5,2.65-10.86,3c-5.13.87-7,.31-10.19-3.07-2.89-3.06-3.93-2.76-3.93-2.76a13.76,13.76,0,0,1,2.82,5,23.47,23.47,0,0,1,.5,3.69l.05,2.24a8.94,8.94,0,0,0,2.41,5.13c-.79-1.45-1.36-3.51-1.36-7.21a10.8,10.8,0,0,0-1.4-5.48,8.05,8.05,0,0,0,5,3.7c4.55,1.22,8.08-.52,14.26-2.39C209.32,88.75,211.47,89.66,216.78,91.23Z" style="fill:#fff"></path></g></g><g id="freepik--Men--inject-136"><rect x="309.15" y="352.99" width="12.47" height="21.35" transform="translate(-9.23 8.21) rotate(-1.47)" style="fill:#f28f8f"></rect><polygon points="274.35 353.96 261.9 354.71 260.7 332.14 273.77 331.37 274.35 353.96" style="fill:#f28f8f"></polygon><path d="M314.14,193.59c1.62,27.51,3.13,83.85,3.13,83.85.38,3.42,3.83,9.43,4.4,21.76.83,17.89.48,64.29.48,64.29a16.4,16.4,0,0,1-13.87.63s-12.65-63.55-15.34-81.2c-2.34-15.41-6.73-57.33-6.73-57.33l-5.46,50.65A174.76,174.76,0,0,1,281.82,300c-.37,8.21-6.86,47-6.86,47s-5.76,4.14-14.37,1.47c0,0-3-64.06-3.31-71.58-.38-8.56-1.7-96.51-1.7-96.51Z" style="fill:#455a64"></path><path d="M290.35,396.94a3.16,3.16,0,0,0,.61,2.22c.41.63,4.87,3.62,14.73,1.71s11.46-8.4,12.17-11.13a12.13,12.13,0,0,1,3.81-6.55,20.54,20.54,0,0,0,3.07-3.62,11.65,11.65,0,0,0,0-3Z" style="fill:#263238"></path><path d="M309.27,368.34l0-1.78c-1.13.13-1.4,2.14-3,6.87a26.29,26.29,0,0,1-6.32,9.3c-2.58,2.48-5,4.18-8.25,7.62-1.11,1.17-2.75,4.3-1.29,6.59,2.56,1.91,7.67,2.43,12.13,2.15s9-1.29,12.52-6.07c1.6-2.14,2.55-7,4-9s4.88-4.45,5.63-6.83c.42-1.31-.19-4.14-.88-6.53-.63-2.19-1.32-4.6-2.07-4.37,0,.27,0,1.36,0,1.36-.88,1-3.35,2.08-6.18,2.26C313.72,370,309.29,369.73,309.27,368.34Z" style="fill:#37474f"></path><path d="M312.74,395.47c.34-3-.73-6-6.35-7.82-4.73-1.5-10.51-1.35-12.31-.08-4,2.38-5.51,6.3-3.73,9.37,0,0,3,3.46,12.7,2.46C310.28,398.66,312.74,395.47,312.74,395.47Z" style="fill:#455a64"></path><path d="M232.62,371.49a4.66,4.66,0,0,0,2.87,4.3c2.23,1.13,7.69,2.42,14.31.77s11.07-4.53,13.08-4.89,4.82-.06,8.62-.39,5.68-1.34,6.47-2.34a11.26,11.26,0,0,0,0-5.14C277.26,361.72,232.62,371.49,232.62,371.49Z" style="fill:#263238"></path><path d="M261.67,350.87c-.65,0-1.15,1-2.54,2.55-1.68,1.91-5.11,3.09-7.86,4.56-4.61,2.45-11.65,4.4-16.66,7.59-2.37,1.51-2.67,5.87,0,7.57s9.14,2.8,16.78.88c4.17-1,9.52-5,13-4.93s11,.31,13.89-2.87c.72-1.74-.08-4.59-.89-7.8-.87-3.5-2-9-3.15-8.69l0,1.22c-1.44,2.3-9.16,3.43-12.49,1.84Z" style="fill:#37474f"></path><path d="M252.5,373.7a8.24,8.24,0,0,0-3.93-9.61,11.48,11.48,0,0,0-7.15-1.91c-6.6,1.51-11,3.85-8.8,9.31C235.08,376,246.9,376,252.5,373.7Z" style="fill:#455a64"></path><path d="M286.21,225.59s-10-2.55-17.62-9.51c0,0,3.51,6.19,13.63,11.77l-1,44Z" style="fill:#37474f"></path><path d="M292.71,109c5.58.54,12.82,1.38,17.67,2.73,3.84,1.58,5.75,4.32,5.86,9,.39,15.92-3.81,49.15-3.81,49.15l2.32,27.51c-7.68,7.66-40.93,10.64-59.45-1.62,0,0,.27-53.16,1.27-62.22,2.06-18.64,8.68-22.63,14.44-23.57S292.71,109,292.71,109Z" style="fill:#FF81AE"></path><path d="M386.92,128.85a2.31,2.31,0,0,1,.32-.86,3.84,3.84,0,0,0-.34-3.87,4.9,4.9,0,0,1-.62-.89,8.36,8.36,0,0,1-.15-2.25c-.46-3.35-5.84-1.88-7.71-1.08-.54.23-3.18,1.29-4.36,1.81-.07-1.52.37-3.18-.44-5.69-1.11-3.44-3.09-4.56-3.73-2.78-.42,1.15,0,1.53-1.25,5.92-.4,1.36-2,3.5-2.43,6.59a20.39,20.39,0,0,1-3.59,8c-2,2.89-14.34,16.61-17.63,20.3,0,0-11.65-17.53-16.68-26-6.22-10.49-7-13.34-17.93-16.41-2,11.29-2.54,22.81,2.26,31.3,0,0,13.85,18.56,20.58,27.38,5.27,6.91,8.48,8.4,13.12,7.42,4.22-.9,9.1-8.61,10.69-11.11,7.31-11.48,9.23-14.58,15.52-23.12,1.56-2.11,4.91-3.7,6.95-4.31,1.87-.57,3.27-.81,4.06-1.05a3.59,3.59,0,0,0,2.89-2.67c.09-.39.12-.8.22-1.19.17-.62.53-1.17.73-1.78a3.73,3.73,0,0,0-.14-2.69A2.42,2.42,0,0,1,386.92,128.85Z" style="fill:#f28f8f"></path><path d="M373,122.41c-1.43.72-2.22,2-2.15,4.74,0,1.65-.66,4.63-2.43,5.84a4.15,4.15,0,0,0,2.31-1c.84-.87,1.07-1,1.53-.47a3.17,3.17,0,0,0,1.23.71,2.14,2.14,0,0,0-.19,2.55c.86,1.43,4.69,1.47,7.82-.16,0,0-5.09,1.59-6.27-.05s1.5-3.67,3.51-4.22c0,0-4.91,1.17-5.67-.46s1.27-2.86,4.17-3.6c0,0-4.07.74-4.77-.65C371.2,123.94,372.43,123,373,122.41Z" style="fill:#b16668"></path><path d="M345,154.09c-3.18,3.91-5.79,7.55-6.18,12.59,0,0-1.3-5.46,5.1-14.22Z" style="fill:#b16668"></path><path d="M310.38,111.69a35.73,35.73,0,0,0,.45,29.67l15.36,20.1c8.69-3.76,11.42-7.51,16-12.11,0,0-8.13-12.77-12.63-20.58C324.66,120.22,321,112.55,310.38,111.69Z" style="fill:#455a64"></path><path d="M292.92,71.08a16.16,16.16,0,1,1-16.3-16A16.14,16.14,0,0,1,292.92,71.08Z" style="fill:#263238"></path><path d="M304.79,82.46s-2.51,12.32-3.54,14.35a5.59,5.59,0,0,1-3.2,2.63l.11-8.66Z" style="fill:#263238"></path><path d="M301.35,64.87a6.07,6.07,0,0,1,5,1.72c2.17,2.18,1,9.09-1.6,15.87l-4.92.61Z" style="fill:#263238"></path><path d="M298.39,83.09c1,.58,2.39-1.33,3.59-2.62s5.18-3.06,7.2,1.1-1.67,9.92-4.79,10.93c-5.39,1.74-6.23-1.72-6.23-1.72l-.22,20.09h0c-6.64,8.67-25.28,8.1-17.6-1l0-5.93s-4.89.79-7.28.44c-4-.58-6.51-3.69-7.75-8-2-6.89-2.78-12.46-1.26-26.06,1.67-14.9,19-15.21,28.39-9.41S298.39,83.09,298.39,83.09Z" style="fill:#f28f8f"></path><path d="M298.4,84.75c.5,0,2.36-3.15,3.58-4.28,1.7-1.57-.63-15.6-.63-15.6a6.81,6.81,0,0,0-1.24-7.58c-2.36-2.55-5.64-5.66-16.24-4.32-7.55,1-15.75,3.39-22.43.19a11.31,11.31,0,0,0,4.05,12s2.42,1.53,8.75,2.24,16.18-.29,17.53-.48c1.83-.27,2.24,1.51,3.27,6.35C296,77.51,296.73,84.73,298.4,84.75Z" style="fill:#263238"></path><path d="M301.35,66l5.95-3.26a3.28,3.28,0,0,0-4.53-1.46A3.57,3.57,0,0,0,301.35,66Z" style="fill:#263238"></path><path d="M280.3,104s8.86-1.86,11.94-3.54a10.18,10.18,0,0,0,4.25-4.28,14.05,14.05,0,0,1-2.39,5c-2.24,2.91-13.77,5.15-13.77,5.15Z" style="fill:#b16668"></path><path d="M282.24,81A1.78,1.78,0,1,0,284,79.14,1.8,1.8,0,0,0,282.24,81Z" style="fill:#263238"></path><path d="M284.06,74.29l3.82,2.06a2.28,2.28,0,0,0-.91-3A2.12,2.12,0,0,0,284.06,74.29Z" style="fill:#263238"></path><path d="M281,93.3l-4,1.56a2.14,2.14,0,0,0,2.77,1.32A2.27,2.27,0,0,0,281,93.3Z" style="fill:#b16668"></path><path d="M266.34,75.92l3.45-2.7a2.11,2.11,0,0,0-3-.44A2.31,2.31,0,0,0,266.34,75.92Z" style="fill:#263238"></path><path d="M267.45,80.64a1.78,1.78,0,1,0,1.76-1.87A1.81,1.81,0,0,0,267.45,80.64Z" style="fill:#263238"></path><polygon points="276.49 78.87 276 89.56 270.4 87.71 276.49 78.87" style="fill:#b16668"></polygon><path d="M302.46,80a15.66,15.66,0,0,0-3.21,5.71,27,27,0,0,0-.56,4.2l-.06,2.55s-2.37,6-6.57,8.3-16.23,5.62-21.82,3.2-7.36-13.09-6.95-18.74c0,0,7.83-2.59,10.76-2.06s9.66,3,12.35,3.47c5.83,1,8,.35,11.59-3.5C301.28,79.67,302.46,80,302.46,80Z" style="fill:#FF81AE"></path><path d="M302.46,80a15.66,15.66,0,0,0-3.21,5.71,27,27,0,0,0-.56,4.2l-.06,2.55s-2.37,6-6.57,8.3-16.23,5.62-21.82,3.2-7.36-13.09-6.95-18.74c0,0,7.83-2.59,10.76-2.06s9.66,3,12.35,3.47c5.83,1,8,.35,11.59-3.5C301.28,79.67,302.46,80,302.46,80Z" style="fill:#fff;opacity:0.7000000000000001"></path><path d="M263.22,86.55c0-.45,0-.89.07-1.31,0,0,7.83-2.59,10.76-2.06s9.66,3,12.35,3.47c5.83,1,8,.35,11.59-3.5,3.29-3.48,4.47-3.13,4.47-3.13a15.66,15.66,0,0,0-3.21,5.71,27,27,0,0,0-.56,4.2l-.06,2.55a17.25,17.25,0,0,1-3,5.09c.9-1.65,1.77-3.25,1.77-7.45A12.3,12.3,0,0,1,299,83.89a9.25,9.25,0,0,1-5.64,4.21c-5.18,1.38-9.19-.6-16.23-2.73C271.78,83.74,269.26,84.76,263.22,86.55Z" style="fill:#fff"></path></g></g><g id="freepik--character-1--inject-136"><g id="freepik--character--inject-136"><path d="M118.46,279.77l-48.25,1.12c-1.17,22.31-2.14,55.25-2.14,55.25-.25,3-2.94,7.95-3.22,19.14-.45,17.23.08,32.78-.07,36.72h0l-.28,7.09h0v.26l.06,0c.26,3.32,11,6.78,11,4.63,0,0-1.39-2.38.77-13.19,1.51-7.58,9.31-34.45,12.47-49.51,2.54-12.15,6.4-32.55,6.4-32.55l4.43,26.41s-1,9.35-.16,15.95c1.42,11.81,3.8,28.55,4,35.07-.66,8.56,6.1,7.45,11,6.53,0,0,0-.72.1-2.62l.15-3.84c.81-9,3.92-43.68,4.63-53.15C120.74,314.77,118.54,293.89,118.46,279.77Z" style="fill:#f28f8f"></path><path d="M70.15,279.77s-1,12.72-1.28,20.18-1,34-1.92,37.1c-3.59,12.41-3,29.62-2.56,53.62a11.53,11.53,0,0,0,12.14,1.22s12.7-45.25,14.19-53.24,4-22.92,4-22.92,2.88,16.73,3.09,19.93,1.33,24.1,4.36,42.67c0,0,1.08,1.52,7.37.77s6.32-3,6.32-3,3.91-41.24,4.34-49.23-.7-36.73-1.79-47.15Z" style="fill:#455a64"></path><path d="M94.77,315.73l1.28-8s10.63-.86,15.29-6.18c0,0-1.55,7-12.69,8.07l-1.41,7.7.43,16.57C96.85,328.12,95.86,322,94.77,315.73Z" style="fill:#37474f"></path><path d="M63.06,406.33c-.56.19-.25,1.93,0,2.49a6,6,0,0,0,3,2.3c1.5.5,4,1.86,4.85,3.67a9.92,9.92,0,0,0,5.6,6,16.3,16.3,0,0,0,11.2,1.12c3.16-.93,4.15-2.49,4.34-3.3a19.86,19.86,0,0,0,0-3.26Z" style="fill:#37474f"></path><path d="M67.49,409.78c-2.07-.89-3.21-1.28-4.38-2.84-.31-3.71.82-4.72.69-6.76-.25-4,.33-3.75.8-3.56,0,.49,0,1.57,0,1.57a5.17,5.17,0,0,0,1.34,1.91,3.12,3.12,0,0,0,2,.33,1.7,1.7,0,0,0,.79-.27,2,2,0,0,0,.52-.71,6.4,6.4,0,0,1,1.63-2.11,6.55,6.55,0,0,1,5.3-1.14,1.67,1.67,0,0,1,.62.2c.43.3.38.93.49,1.44.47,2.2,2.53,4.63,4.43,6.52A23.84,23.84,0,0,0,85.9,408a20.51,20.51,0,0,1,4.44,3.26,6.22,6.22,0,0,1,1.38,5.57,4.78,4.78,0,0,1-3.15,3,12.9,12.9,0,0,1-4.12.82,13.5,13.5,0,0,1-5.3-.74,11.12,11.12,0,0,1-6.41-5.06A10.67,10.67,0,0,0,67.49,409.78Z" style="fill:#455a64"></path><path d="M72.64,402.73a8.16,8.16,0,0,1,6-2s1.07.27.94,1.26a8.94,8.94,0,0,0-6.35,2.08c-.4.32-.75.36-1.07-.07S72.31,403,72.64,402.73Z" style="fill:#f5f5f5"></path><path d="M74.4,405.46a9.1,9.1,0,0,1,6.3-2.12s1.3.35,1.32,1.36c0,0-2.93-.78-6.69,2a.81.81,0,0,1-1.3-.27h0A1,1,0,0,1,74.4,405.46Z" style="fill:#f5f5f5"></path><path d="M76.67,409.36a.9.9,0,0,1,.19-1.18,9.13,9.13,0,0,1,6.25-2.31s1.55.41,1.77,1.39A9.94,9.94,0,0,0,78,409.52a.91.91,0,0,1-1.33-.14Z" style="fill:#f5f5f5"></path><path d="M78.54,413.06a6.93,6.93,0,0,0-1.76,5.74,10.64,10.64,0,0,0,2.37,1.05,13.5,13.5,0,0,0,5.3.74,12.9,12.9,0,0,0,4.12-.82c1.36-.51,3.27-1.51,3.72-3.06a7,7,0,0,0-1.57-5.89,5.28,5.28,0,0,0-2.11-1.36h0C85.77,408.57,81,410.26,78.54,413.06Z" style="fill:#f0f0f0"></path><path d="M101.92,394.49c-.56.19-.25,1.93,0,2.49a6.07,6.07,0,0,0,3,2.3c1.49.5,4,1.86,4.85,3.67a9.93,9.93,0,0,0,5.59,6A16.33,16.33,0,0,0,126.62,410c3.15-.93,4.15-2.49,4.33-3.3a19,19,0,0,0,0-3.26Z" style="fill:#37474f"></path><path d="M106.35,397.94c-2.06-.89-3.2-1.28-4.37-2.84-.31-3.71.81-4.72.69-6.76-.25-4,.32-3.75.79-3.56,0,.49,0,1.57,0,1.57a5.08,5.08,0,0,0,1.35,1.91,3.1,3.1,0,0,0,2,.33,1.66,1.66,0,0,0,.78-.27,2.07,2.07,0,0,0,.53-.71,6.4,6.4,0,0,1,1.63-2.11,6.49,6.49,0,0,1,5.29-1.14,1.62,1.62,0,0,1,.62.2c.44.3.38.93.49,1.44.47,2.2,2.54,4.63,4.44,6.51a23.08,23.08,0,0,0,4.21,3.62,20.37,20.37,0,0,1,4.45,3.26,6.22,6.22,0,0,1,1.38,5.57,4.8,4.8,0,0,1-3.15,3,13,13,0,0,1-4.13.82A13.61,13.61,0,0,1,118,408a11.12,11.12,0,0,1-6.41-5.06A10.73,10.73,0,0,0,106.35,397.94Z" style="fill:#455a64"></path><path d="M111.51,390.89a8.11,8.11,0,0,1,6-2s1.07.27.94,1.26a8.94,8.94,0,0,0-6.35,2.08c-.39.32-.74.36-1.07-.07S111.17,391.17,111.51,390.89Z" style="fill:#f5f5f5"></path><path d="M113.26,393.62a9.06,9.06,0,0,1,6.31-2.12s1.3.35,1.32,1.36c0,0-2.94-.78-6.7,2a.8.8,0,0,1-1.29-.27h0A.93.93,0,0,1,113.26,393.62Z" style="fill:#f5f5f5"></path><path d="M115.53,397.52a.92.92,0,0,1,.19-1.18A9.15,9.15,0,0,1,122,394s1.56.41,1.77,1.39a9.91,9.91,0,0,0-6.86,2.26.91.91,0,0,1-1.33-.14Z" style="fill:#f5f5f5"></path><path d="M117.41,401.22a7,7,0,0,0-1.77,5.74A10.92,10.92,0,0,0,118,408a13.61,13.61,0,0,0,5.29.74,13,13,0,0,0,4.13-.82c1.35-.51,3.26-1.51,3.71-3.06a7,7,0,0,0-1.57-5.89,5.11,5.11,0,0,0-2.11-1.36h0C124.64,396.73,119.84,398.42,117.41,401.22Z" style="fill:#f0f0f0"></path><path d="M113.76,269.47c-11.51-33.6-6.46-36.56-7.84-43.65,9.57-.32,13.83,3.37,16.39,13.55,1.26,5,3.39,20.11,5.83,28,2.21,7.09,5.85,14.74,10.86,20.46a9.32,9.32,0,0,0,4.4,2.29c2.88.76,4,2.49,6.5,3.56,2.37,1,2.82,1.31,2.78,1.84-.05.68-.76,1.45-2.67,1.61a8.56,8.56,0,0,1-4.47-.85,26.81,26.81,0,0,0,5.19,4.33c4.66,3.09,4.08,7.43-3,8-5.09.39-10.64-2.4-16-8a79.46,79.46,0,0,1-7.63-9.18C116.09,280,116,275.94,113.76,269.47Z" style="fill:#f28f8f"></path><path d="M107.4,225.73c4.17-.16,9.25.39,12.22,5.4s4.28,15.71,6.61,26.4c0,0-7.91,6.71-17.73,5.72l-4.56-26.78Z" style="fill:#455a64"></path><path d="M75,225.17c-.63,3.37-7.07,20.1-7.1,19.92l2.36,19-.9,24c6.92,7.54,34.84,9.95,50-1.09,0,0-1.6-38.92-2.74-46.53-2-13.22-6.39-14.86-15.48-15.76l-16.69-.2Z" style="fill:#FF81AE"></path><path d="M75,225.17c-.63,3.37-7.07,20.1-7.1,19.92l2.36,19-.9,24c6.92,7.54,34.84,9.95,50-1.09,0,0-1.6-38.92-2.74-46.53-2-13.22-6.39-14.86-15.48-15.76l-16.69-.2Z" style="opacity:0.30000000000000004"></path><path d="M24.79,238.42a59.46,59.46,0,0,0-5.3-2.89c-1.21-.57-2.82-1-3.29-2.44a7.17,7.17,0,0,1-.24-1.85,5.22,5.22,0,0,0-.3-1.84,6.88,6.88,0,0,1-.56-1.32,4.52,4.52,0,0,1,.23-1.75,2.71,2.71,0,0,0-.14-1.64,3.51,3.51,0,0,1,.75-3.49,4.27,4.27,0,0,0,.67-.74c.35-.59.21-1.36.39-2,.8-3,6-.59,7.66.35.46.28,2.77,1.55,3.8,2.17A17.24,17.24,0,0,1,30,216.08c1.4-3,4-3,3.74-1.06a29.16,29.16,0,0,0,.13,5.07c.08,1.3.39,3.2.69,6.16A16.32,16.32,0,0,0,36.37,233c3,5.38,14,19.94,14,19.94,4.65-7.2,9.11-14.88,15.84-23.32,3.14-4,9.43-4.15,9.43-4.15l-3.18,24.63s-8.67,12.83-16.2,19.4c-4.18,3.64-8.84,5.21-14.21-1.7C34.33,257.87,27.62,240.69,24.79,238.42Z" style="fill:#f28f8f"></path><path d="M50.36,252.93c2.18,3.06,3.12,5.71,3.19,8.21,0,0,1.22-4.28-2.51-9.26Z" style="fill:#b16668"></path><path d="M26.93,221.58c1.62.75,1.94,1.93,1.59,4.34-.21,1.44-.12,4.15,1.31,5.41a3.76,3.76,0,0,1-1.92-1.14c-.65-.85-.84-1-1.3-.58a2.69,2.69,0,0,1-1.16.48,1.88,1.88,0,0,1-.11,2.25c-.9,1.15-4.27.75-6.85-1,0,0,4.3,2,5.52.66s-.93-3.37-2.64-4.08c0,0,4.2,1.58,5,.24s-.82-2.63-3.28-3.6c0,0,3.49,1.1,4.26,0C28.32,223.12,27.34,222.13,26.93,221.58Z" style="fill:#b16668"></path><path d="M76.3,225.07c-1,.09-6.18.11-9.44,3.42-3.52,3.56-8.08,10.4-14.52,20.62,0,0,2.82,6.92,11.62,12.64l9.34-11.26S81,240.68,76.3,225.07Z" style="fill:#455a64"></path><circle cx="102.87" cy="194.47" r="14.24" transform="translate(-100.79 277.68) rotate(-84.34)" style="fill:#263238"></circle><path d="M78.58,203.41s2.21,10.43,3.1,12.14a4.76,4.76,0,0,0,2.73,2.21l-.15-7.34Z" style="fill:#263238"></path><path d="M81.36,188.47a5.12,5.12,0,0,0-4.25,1.5c-1.83,1.87-.81,7.72,1.47,13.44l4.18.48Z" style="fill:#263238"></path><path d="M84,203.9c-.84.5-2-1.11-3.07-2.2s-4.41-2.55-6.09,1,1.49,8.4,4.14,9.23c4.58,1.44,5.27-1.5,5.27-1.5l.35,16.52s3,7.33,11.12,8.43,8-5.7,5.37-9v-4.64a19.55,19.55,0,0,0,6-.6c2.59-.7,4.55-2.25,6.25-6.18,2.29-5.29,2.59-11.08.91-21.92-2-12.56-17.42-12.93-25.35-7.94S84,203.9,84,203.9Z" style="fill:#f28f8f"></path><path d="M93.7,179.26A24.35,24.35,0,0,0,99,178a86.31,86.31,0,0,0,12.27-4.42,2,2,0,0,1,1.38-.25,1.81,1.81,0,0,1,1,1.45,10.23,10.23,0,0,1-1.12,7.32,5.16,5.16,0,0,0,1.15-.51,2.47,2.47,0,0,1,.91-.47c1.71-.11.85,2.77.59,3.57a8.8,8.8,0,0,1-2.45,3.6,15.65,15.65,0,0,1-8.38,3.82c-4.36.63-8.81-.22-13.08-1.34a7.54,7.54,0,0,1-5.4,7.83,14.52,14.52,0,0,1,.59,5.2,2.27,2.27,0,0,1-.92,2c-.83.42-1.6-.33-2.14-1.09s-1.34-1.74-2-2.57A2.77,2.77,0,0,1,80.6,201a11.24,11.24,0,0,1-.19-3.38c.07-2,.28-4.06.53-6.07.09-.75.19-1.49.29-2.23,0-.17.21-.7.13-.86a5.63,5.63,0,0,1,1.4-6c1.55-1.72,4-2.19,6.16-2.57a34.33,34.33,0,0,1,4.71-.62Z" style="fill:#263238"></path><path d="M81.37,189.4l-5.07-2.72a2.8,2.8,0,0,1,3.84-1.27A3,3,0,0,1,81.37,189.4Z" style="fill:#263238"></path><path d="M101.09,221.75s-8.08-.83-11.74-3.19A10.11,10.11,0,0,1,85.72,215a10.06,10.06,0,0,0,2.06,4.24c3.62,4.28,13.32,4.52,13.32,4.52Z" style="fill:#b16668"></path><path d="M98.24,202a1.7,1.7,0,1,1-1.7-1.76A1.72,1.72,0,0,1,98.24,202Z" style="fill:#263238"></path><path d="M96,196.92l-3.61,2a2.16,2.16,0,0,1,.85-2.87A2,2,0,0,1,96,196.92Z" style="fill:#263238"></path><path d="M98.25,212l4.62,1.73a2.42,2.42,0,0,1-3.13,1.53A2.59,2.59,0,0,1,98.25,212Z" style="fill:#b16668"></path><path d="M112.76,197.86l-3.29-2.53a2,2,0,0,1,2.86-.44A2.18,2.18,0,0,1,112.76,197.86Z" style="fill:#263238"></path><path d="M111.89,201.26a1.7,1.7,0,1,1-1.7-1.77A1.73,1.73,0,0,1,111.89,201.26Z" style="fill:#263238"></path><polygon points="103.67 199.11 103.97 209.22 108.7 207.61 103.67 199.11" style="fill:#b16668"></polygon><path d="M80.94,201.7a13.76,13.76,0,0,1,2.82,5,23.47,23.47,0,0,1,.5,3.69l0,2.24s2.08,5.26,5.77,7.3,14.47,3.75,19.39,1.62,6.21-10.31,5.86-15.28c0,0-6.83-2.28-9.41-1.82s-8.5,2.65-10.86,3.05c-5.13.87-7,.31-10.19-3.07C82,201.4,80.94,201.7,80.94,201.7Z" style="fill:#FF81AE"></path><path d="M80.94,201.7a13.76,13.76,0,0,1,2.82,5,23.47,23.47,0,0,1,.5,3.69l0,2.24s2.08,5.26,5.77,7.3,14.47,3.75,19.39,1.62,6.21-10.31,5.86-15.28c0,0-6.83-2.28-9.41-1.82s-8.5,2.65-10.86,3.05c-5.13.87-7,.31-10.19-3.07C82,201.4,80.94,201.7,80.94,201.7Z" style="fill:#fff;opacity:0.7000000000000001"></path><path d="M115.38,207.45c0-.4,0-.78,0-1.15,0,0-6.83-2.28-9.41-1.82s-8.5,2.65-10.86,3.05c-5.13.87-7,.31-10.19-3.07-2.89-3.06-3.93-2.76-3.93-2.76a13.76,13.76,0,0,1,2.82,5,23.47,23.47,0,0,1,.5,3.69l0,2.24a15.18,15.18,0,0,0,2.6,4.47,11.41,11.41,0,0,1-1.55-6.55A10.8,10.8,0,0,0,84,205.1a8.05,8.05,0,0,0,5,3.7c4.55,1.22,8.08-.52,14.26-2.39C107.92,205,110.07,205.88,115.38,207.45Z" style="fill:#fff"></path></g></g></svg>